<?xml version="1.0" encoding="UTF-8" standalone="no"?>
<!-- Created with Inkscape (http://www.inkscape.org/) -->

<svg
   xmlns:dc="http://purl.org/dc/elements/1.1/"
   xmlns:cc="http://creativecommons.org/ns#"
   xmlns:rdf="http://www.w3.org/1999/02/22-rdf-syntax-ns#"
   xmlns:svg="http://www.w3.org/2000/svg"
   xmlns="http://www.w3.org/2000/svg"
   xmlns:xlink="http://www.w3.org/1999/xlink"
   xmlns:sodipodi="http://sodipodi.sourceforge.net/DTD/sodipodi-0.dtd"
   xmlns:inkscape="http://www.inkscape.org/namespaces/inkscape"
   width="2000"
   height="360"
   id="svg3502"
   sodipodi:version="0.32"
   inkscape:version="0.48.5 r10040"
   version="1.0"
   sodipodi:docname="openflipper-logo.svg"
   inkscape:output_extension="org.inkscape.output.svg.inkscape"
   inkscape:export-filename="/home/born/projects/openflipper-logo/openflipper-logo.png"
   inkscape:export-xdpi="28.799999"
   inkscape:export-ydpi="28.799999">
  <defs
     id="defs3504">
    <linearGradient
       id="linearGradient3181">
      <stop
         id="stop3189"
         offset="0"
         style="stop-color:#ffffff;stop-opacity:1;" />
      <stop
         style="stop-color:#e0e0d0;stop-opacity:1;"
         offset="1"
         id="stop3185" />
    </linearGradient>
    <inkscape:perspective
       sodipodi:type="inkscape:persp3d"
       inkscape:vp_x="0 : 526.18109 : 1"
       inkscape:vp_y="0 : 1000 : 0"
       inkscape:vp_z="744.09448 : 526.18109 : 1"
       inkscape:persp3d-origin="372.04724 : 350.78739 : 1"
       id="perspective3510" />
    <linearGradient
       y2="428.14209"
       x2="549.0155"
       y1="428.14209"
       x1="213.79681"
       gradientUnits="userSpaceOnUse"
       id="linearGradient5476"
       xlink:href="#linearGradient3255"
       inkscape:collect="always"
       gradientTransform="translate(1345.7985,-861.20628)" />
    <filter
       y="-0.5"
       x="-0.5"
       width="4"
       height="2"
       id="filter"
       color-interpolation-filters="sRGB">
      <feGaussianBlur
         id="feGaussianBlur5218"
         stdDeviation="5.0" />
    </filter>
    <clipPath
       id="clipPath">
      <path
         sodipodi:nodetypes="ccccccccc"
         id="rect3167"
         d="m 282.4375,190.6875 c -33.71315,0.0137 -61.03478,27.34935 -61.03125,61.0625 l 0,364.6875 c -0.004,33.71315 27.3181,61.04878 61.03125,61.0625 l 364.71875,0 c 33.71315,-0.0137 61.03478,-27.34935 61.03125,-61.0625 l 0,-364.6875 c 0.004,-33.71315 -27.3181,-61.04878 -61.03125,-61.0625 l -364.71875,0 z"
         style="fill:url(#linearGradient4721);fill-opacity:1;fill-rule:nonzero;stroke:#003010;stroke-width:1;stroke-linejoin:round;stroke-miterlimit:4;stroke-opacity:1;stroke-dasharray:none;stroke-dashoffset:0"
         inkscape:connector-curvature="0" />
    </clipPath>
    <linearGradient
       gradientUnits="userSpaceOnUse"
       y2="434.09375"
       x2="708.1875"
       y1="434.09375"
       x1="221.40625"
       id="linearGradient4721"
       xlink:href="#linearGradient3169"
       inkscape:collect="always" />
    <linearGradient
       gradientUnits="userSpaceOnUse"
       y2="428.14209"
       x2="549.0155"
       y1="428.14209"
       x1="213.79681"
       id="linearGradient3263"
       xlink:href="#linearGradient3255"
       inkscape:collect="always" />
    <inkscape:perspective
       sodipodi:type="inkscape:persp3d"
       inkscape:vp_x="0 : 526.18109 : 1"
       inkscape:vp_y="0 : 1000 : 0"
       inkscape:vp_z="744.09448 : 526.18109 : 1"
       inkscape:persp3d-origin="372.04724 : 350.78739 : 1"
       id="perspective3277" />
    <inkscape:perspective
       id="perspective10"
       inkscape:persp3d-origin="372.04724 : 350.78739 : 1"
       inkscape:vp_z="744.09448 : 526.18109 : 1"
       inkscape:vp_y="0 : 1000 : 0"
       inkscape:vp_x="0 : 526.18109 : 1"
       sodipodi:type="inkscape:persp3d" />
    <linearGradient
       id="linearGradient3181-4">
      <stop
         style="stop-color:#ffffff;stop-opacity:1;"
         offset="0"
         id="stop3189-1" />
      <stop
         id="stop3185-9"
         offset="1"
         style="stop-color:#e0e0d0;stop-opacity:1;" />
    </linearGradient>
    <linearGradient
       id="linearGradient3199">
      <stop
         id="stop3201"
         offset="0"
         style="stop-color:#000000;stop-opacity:1;" />
      <stop
         id="stop3203"
         offset="1"
         style="stop-color:#000000;stop-opacity:0;" />
    </linearGradient>
    <linearGradient
       id="linearGradient3207">
      <stop
         style="stop-color:#fd8d3c;stop-opacity:1;"
         offset="0"
         id="stop3209" />
      <stop
         style="stop-color:#fd8d3c;stop-opacity:1;"
         offset="1"
         id="stop3211" />
    </linearGradient>
    <linearGradient
       id="linearGradient3169">
      <stop
         id="stop3171"
         offset="0"
         style="stop-color:#003010;stop-opacity:1;" />
      <stop
         id="stop3173"
         offset="1"
         style="stop-color:#227c40;stop-opacity:1;" />
    </linearGradient>
    <linearGradient
       id="linearGradient3255">
      <stop
         id="stop3257"
         offset="0"
         style="stop-color:#f07030;stop-opacity:1;" />
      <stop
         id="stop3259"
         offset="1"
         style="stop-color:#a43b06;stop-opacity:1;" />
    </linearGradient>
    <inkscape:path-effect
       prop_scale="1"
       bendpath="m 221.406,434.094 486.782,0"
       id="path-effect5472"
       effect="bend_path"
       is_visible="true"
       scale_y_rel="false"
       vertical="false" />
    <linearGradient
       inkscape:collect="always"
       xlink:href="#linearGradient3255"
       id="linearGradient3850"
       gradientUnits="userSpaceOnUse"
       gradientTransform="matrix(1.5939783,0,0,1.5939783,765.71143,-2570.7723)"
       x1="213.79681"
       y1="428.14209"
       x2="549.0155"
       y2="428.14209" />
    <linearGradient
       inkscape:collect="always"
       xlink:href="#linearGradient3255"
       id="linearGradient3852"
       gradientUnits="userSpaceOnUse"
       gradientTransform="matrix(1.5939783,0,0,1.5939783,765.71143,-2570.7723)"
       x1="213.79681"
       y1="428.14209"
       x2="549.0155"
       y2="428.14209" />
  </defs>
  <sodipodi:namedview
     id="base"
     pagecolor="#ffffff"
     bordercolor="#666666"
     borderopacity="1.0"
     inkscape:pageopacity="0.0"
     inkscape:pageshadow="2"
     inkscape:zoom="0.7"
     inkscape:cx="1000.6376"
     inkscape:cy="277.68314"
     inkscape:document-units="px"
     inkscape:current-layer="g3023"
     showgrid="false"
     inkscape:window-width="2560"
     inkscape:window-height="1356"
     inkscape:window-x="0"
     inkscape:window-y="511"
     showborder="true"
     borderlayer="true"
     inkscape:showpageshadow="false"
     showguides="true"
     inkscape:guide-bbox="true"
     inkscape:object-nodes="true"
     fit-margin-top="0"
     fit-margin-left="0"
     fit-margin-right="0"
     fit-margin-bottom="0"
     inkscape:snap-bbox="true"
     inkscape:bbox-nodes="false"
     inkscape:snap-page="true"
     inkscape:window-maximized="1"
     inkscape:snap-global="true"
     inkscape:snap-nodes="true"
     inkscape:snap-bbox-midpoints="true" />
  <metadata
     id="metadata3507">
    <rdf:RDF>
      <cc:Work
         rdf:about="">
        <dc:format>image/svg+xml</dc:format>
        <dc:type
           rdf:resource="http://purl.org/dc/dcmitype/StillImage" />
        <dc:title></dc:title>
      </cc:Work>
    </rdf:RDF>
  </metadata>
  <g
     style="display:none"
     transform="translate(219.35702,-191.35993)"
     id="g4103"
     inkscape:groupmode="layer"
     inkscape:label="OpenFlipper Logo (text)"
     sodipodi:insensitive="true">
    <flowRoot
       xml:space="preserve"
       id="flowRoot4413"
       style="font-size:40px;font-style:normal;font-weight:normal;line-height:125%;letter-spacing:0px;word-spacing:0px;fill:#000000;fill-opacity:1;stroke:none;font-family:Sans"
       transform="translate(-449.65295,-323.88293)"><flowRegion
         id="flowRegion4415"><rect
           id="rect4417"
           width="22.857143"
           height="140"
           x="4245.7144"
           y="-40" /></flowRegion><flowPara
         id="flowPara4419" /></flowRoot>    <text
       xml:space="preserve"
       style="font-size:340.902771px;font-style:normal;font-variant:normal;font-weight:bold;font-stretch:normal;text-align:start;line-height:125%;letter-spacing:0px;word-spacing:0px;writing-mode:lr-tb;text-anchor:start;fill:#c0c0c0;fill-opacity:1;stroke:none;font-family:Trebuchet MS;-inkscape-font-specification:Trebuchet MS Bold"
       x="-170.22333"
       y="476.69107"
       id="text4409"
       sodipodi:linespacing="125%"><tspan
         sodipodi:role="line"
         id="tspan4411"
         x="-170.22333"
         y="476.69107"
         dx="0 0 0 0 0 -8.6008997"
         style="letter-spacing:-4.30044985px">OpenFlipper</tspan></text>
    <g
       id="g4443"
       style="fill:#604ec0;fill-opacity:1"
       transform="matrix(0.56701446,0,0,0.56701446,-300.27098,120.53097)">
      <path
         sodipodi:type="inkscape:offset"
         inkscape:radius="17.694496"
         inkscape:original="M 454.3125 151 C 411.23234 150.6082 369.64074 171.3142 354.65625 183.90625 C 328.47457 205.90774 314.50439 223.48694 298.53125 243.78125 C 296.58307 246.25648 293.068 249.02663 287.78125 250.46875 C 227.31263 266.96335 219.67687 295.82168 218.40625 297.5625 C 207.21557 312.89433 217.43728 323.23323 237.6875 315.6875 C 250.34348 310.97157 260.36266 320.23602 257.84375 327.84375 C 222.99924 433.08262 257.78125 551.59375 257.78125 551.59375 C 197.02939 643.98721 250.69034 674.50831 257.46875 673.15625 C 267.55326 671.03125 262.02678 660.50446 266.3125 646.21875 C 270.73368 631.48145 270.21875 615.49554 300.21875 609.78125 C 300.21875 609.78125 348.89058 619.95395 350.15625 593.375 C 351.42192 566.79607 317.19714 550.21022 312.28125 549 C 299.62515 544.33312 296.60904 544.15483 286.46875 541.5 C 275.36199 438.84254 341.37822 339.03635 367.4375 314.03125 C 417.66615 265.83452 392.29637 347.38301 412.65625 338.875 C 430.98902 331.21408 422.47878 275.49025 441.03125 264.625 C 455.56777 256.11168 461.60793 257.96867 508.4375 260.5 C 555.26706 263.03133 588.35902 253.72149 579.75 230.125 C 566.05061 210.50245 563.00719 233.17536 545.6875 203.96875 C 522.21782 164.39128 487.81929 151.30474 454.3125 151 z "
         style="fill:#ffffff;fill-opacity:1;fill-rule:evenodd;stroke:none"
         id="path4447"
         d="m 454.46875,133.3125 c -48.8528,-0.4443 -91.17107,20.24192 -111.1875,37.0625 -27.36225,22.99357 -42.65336,42.13664 -58.65625,62.46875 0.48115,-0.61132 0.15767,0.11032 -1.5,0.5625 -32.57945,8.88701 -52.61781,21.6583 -64.65625,33.53125 -6.01922,5.93647 -9.99563,11.64015 -12.53125,16.0625 -1.26781,2.21118 -2.19826,4.12209 -2.78125,5.40625 -0.1309,0.28834 -0.15771,0.3549 -0.25,0.5625 -3.45918,5.1344 -6.00792,10.69753 -6.65625,17.21875 -0.72527,7.29502 1.90978,16.14561 7.71875,21.75 9.84996,9.50306 21.93082,9.40845 33.625,6.15625 -26.42249,92.73543 -5.67251,188.27479 1.15625,214.78125 -28.00978,45.41787 -31.67916,80.20323 -23.15625,104.5 4.4821,12.77738 11.96573,22.05795 19.3125,28.0625 3.67338,3.00227 7.29525,5.21493 10.96875,6.84375 3.6735,1.62882 5.75716,4.07484 15.0625,2.21875 a 17.696266,17.696266 0 0 0 0.1875,-0.0312 c 5.7244,-1.20624 12.71742,-5.31387 16.28125,-10.875 3.56383,-5.56113 3.97919,-10.36989 4.28125,-13.78125 0.60412,-6.82272 0.36488,-10.50795 1.5625,-14.5 2.7709,-9.23637 3.8638,-14.86402 5.34375,-17.1875 1.34333,-2.109 3.07339,-4.25869 12.28125,-6.34375 4.52015,0.81425 13.24953,2.17833 24.96875,1.4375 7.73862,-0.48919 16.3322,-1.75933 24.9375,-6.8125 8.6053,-5.05317 16.48724,-16.1071 17.0625,-28.1875 1.00159,-21.03324 -11.6335,-36.55773 -22.875,-46.0625 -5.62075,-4.75238 -11.22143,-8.3187 -15.96875,-10.9375 -4.07341,-2.24704 -6.51121,-3.53024 -10.625,-4.75 l 0.0312,-0.0625 c -6.64614,-2.45073 -11.10824,-3.83245 -15.09375,-4.90625 -1.94744,-43.01883 9.85585,-85.99529 25.84375,-121.59375 17.48785,-38.93823 40.60173,-69.56591 50.53125,-79.09375 1.95031,-1.87142 3.46885,-3.15033 5.0625,-4.5 0.41458,3.96295 0.92721,8.39048 2.03125,13.34375 0.94627,4.24541 1.81807,9.45664 7.78125,15.28125 5.96318,5.82461 18.32512,7.00013 24.90625,4.25 12.07384,-5.04543 16.85258,-15.64975 19.59375,-24.21875 2.74117,-8.569 3.94414,-17.20855 5.1875,-25.34375 1.24336,-8.1352 2.51215,-15.74207 4.03125,-20.71875 1.13932,-3.73251 2.40988,-5.19988 2.3125,-5.3125 5.03555,-2.94647 5.68283,-3.28756 12.5625,-3.5 7.24951,-0.22386 20.70579,0.78646 44.3125,2.0625 24.80654,1.3409 46.28122,0.11625 63.6875,-6.5 8.70314,-3.30812 17.06245,-8.22871 22.625,-17.03125 5.56255,-8.80254 6.12542,-20.88254 2.59375,-30.5625 A 17.696266,17.696266 0 0 0 594.25,220 c -4.51644,-6.4692 -9.74817,-11.57072 -16.0625,-14.34375 -5.51836,-2.42347 -9.72081,-2.47921 -11.40625,-2.53125 -0.6803,-0.66003 -2.65769,-2.76208 -5.875,-8.1875 -26.46582,-44.62994 -68.43419,-61.27936 -106.4375,-61.625 z" />
    </g>
    <g
       transform="matrix(0.56701446,0,0,0.56701446,-300.27098,120.53097)"
       style="fill:#f6a800;fill-opacity:1"
       id="g4109">
      <path
         style="fill:#f6a800;fill-opacity:1;fill-rule:evenodd;stroke:none"
         d="m 257.77602,551.60626 0,0 c 0,0 -34.77191,-118.53081 0.0726,-223.76968 2.51891,-7.60773 -7.51653,-16.84969 -20.17251,-12.13376 -20.25022,7.54573 -30.45182,-2.79817 -19.26114,-18.13 1.27062,-1.74082 8.88744,-30.62445 69.35606,-47.11905 5.28675,-1.44212 8.81697,-4.21081 10.76515,-6.68604 15.97314,-20.29431 29.92676,-37.85375 56.10844,-59.85524 26.6391,-22.38587 137.39861,-70.41971 191.04359,20.04307 17.31969,29.20661 20.354,6.54953 34.05339,26.17208 8.60902,23.59649 -24.47333,32.90726 -71.30289,30.37593 -46.82957,-2.53133 -52.88028,-4.39072 -67.4168,4.1226 -18.55247,10.86525 -10.02711,66.59598 -28.35988,74.2569 -20.35988,8.50801 5.01897,-73.05912 -45.20968,-24.86239 -26.05928,25.0051 -92.08829,124.83026 -80.98153,227.48772 10.14029,2.65483 13.14842,2.82239 25.80452,7.48927 4.91589,1.21022 39.15981,17.79656 37.89414,44.37549 -1.26567,26.57895 -49.95865,16.39734 -49.95865,16.39734 -30,5.71429 -29.47979,21.69744 -33.90097,36.43474 -4.28572,14.28571 1.23909,24.81837 -8.84542,26.94337 -6.77841,1.35206 -60.44027,-29.14889 0.31159,-121.54235 z"
         id="path4111"
         sodipodi:nodetypes="ccssssszscssssccsccccc"
         inkscape:connector-curvature="0" />
    </g>
  </g>
  <g
     inkscape:label="OpenFlipper Logo (path)"
     inkscape:groupmode="layer"
     id="g3023"
     transform="translate(219.35702,-191.35993)"
     style="display:inline">
    <flowRoot
       transform="translate(-449.65295,-323.88293)"
       style="font-size:40px;font-style:normal;font-weight:normal;line-height:125%;letter-spacing:0px;word-spacing:0px;fill:#000000;fill-opacity:1;stroke:none;font-family:Sans"
       id="flowRoot3025"
       xml:space="preserve"><flowRegion
         id="flowRegion3027"><rect
           y="-40"
           x="4245.7144"
           height="140"
           width="22.857143"
           id="rect3029" /></flowRegion><flowPara
         id="flowPara3031" /></flowRoot>    <path
       style="font-size:340.902771px;font-style:normal;font-variant:normal;font-weight:bold;font-stretch:normal;text-align:start;line-height:125%;letter-spacing:-4.30044985px;word-spacing:0px;writing-mode:lr-tb;text-anchor:start;fill:#c0c0c0;fill-opacity:1;stroke:none;font-family:Trebuchet MS;-inkscape-font-specification:Trebuchet MS Bold"
       d="m 253.1875,76.84375 c -2.90533,3.013705 -6.52324,4.958435 -10.25,6.375 -9.86961,3.75149 -22.02808,4.41656 -36.09375,3.65625 -0.87255,-0.04717 -1.26925,-0.07937 -2.09375,-0.125 17.22386,13.181746 25.81238,38.03799 25.8125,74.5625 -1.8e-4,29.18546 -5.69517,51.43608 -17.125,66.75 -11.31919,15.31403 -27.7983,22.96878 -49.4375,22.96875 -18.42127,3e-5 -32.47061,-7.8218 -42.125,-23.46875 -9.65453,-15.64683 -14.4688,-37.73037 -14.46875,-66.25 0,-1.98367 0.0345,-3.92184 0.0937,-5.84375 -0.60121,1.26065 -1.19985,2.54922 -1.78125,3.84375 -9.06537,20.18484 -15.76048,44.57645 -14.65625,68.96875 2.25984,0.60886 4.79404,1.39165 8.5625,2.78125 l -0.03125,0.0312 c 2.33258,0.69162 3.72156,1.41339 6.03125,2.6875 2.6918,1.4849 5.87545,3.49283 9.0625,6.1875 6.37409,5.38934 13.53667,14.19885 12.96875,26.125 -0.27979,5.87551 -3.60452,11.32352 -7.625,14.5625 12.697,5.88626 27.35706,8.84375 43.96875,8.84375 35.62153,0 63.06588,-11.54303 82.375,-34.625 19.4197,-23.0819 29.12477,-54.2787 29.125,-93.5625 -2e-4,-35.20202 -7.43141,-63.345718 -22.3125,-84.46875 z"
       transform="translate(-219.35702,191.35993)"
       id="path3082"
       inkscape:connector-curvature="0" />
    <path
       inkscape:connector-curvature="0"
       id="path3048"
       style="font-size:340.902771px;font-style:normal;font-variant:normal;font-weight:bold;font-stretch:normal;text-align:start;line-height:125%;letter-spacing:-4.30044985px;word-spacing:0px;writing-mode:lr-tb;text-anchor:start;fill:#c0c0c0;fill-opacity:1;stroke:none;font-family:Trebuchet MS;-inkscape-font-specification:Trebuchet MS Bold"
       d="m 125.93009,472.19675 0,74.40602 -41.614108,0 0,-248.18654 41.614108,0 0,11.98487 c 10.4312,-10.20916 23.24833,-15.31381 38.45144,-15.314 56.81697,1.9e-4 85.2255,31.29396 85.22569,93.88143 -1.9e-4,29.18542 -7.87912,51.65702 -23.63682,67.41486 -15.64704,15.75788 -37.06442,23.63681 -64.25218,23.63681 -13.09465,0 -25.02402,-2.60782 -35.78813,-7.82345 m 0,-130.16893 0,93.71497 c 7.54596,6.10344 16.36814,9.15513 26.46657,9.1551 19.19787,3e-5 32.95826,-4.54977 41.2812,-13.64943 8.43365,-9.21053 12.65054,-23.69222 12.65069,-43.44512 -1.5e-4,-21.08437 -4.16155,-35.89898 -12.48424,-44.44387 -8.32294,-8.65559 -22.08332,-12.98346 -41.28119,-12.9836 -9.98746,1.4e-4 -18.86513,3.88412 -26.63303,11.65195" />
    <path
       inkscape:connector-curvature="0"
       id="path3050"
       style="font-size:340.902771px;font-style:normal;font-variant:normal;font-weight:bold;font-stretch:normal;text-align:start;line-height:125%;letter-spacing:-4.30044985px;word-spacing:0px;writing-mode:lr-tb;text-anchor:start;fill:#c0c0c0;fill-opacity:1;stroke:none;font-family:Trebuchet MS;-inkscape-font-specification:Trebuchet MS Bold"
       d="m 440.89306,400.28757 -127.33917,0 c 0.77674,14.20434 5.65946,25.24594 14.64817,33.12483 8.98856,7.87897 21.08439,11.81844 36.2875,11.81841 18.97591,3e-5 33.40212,-4.93818 43.27867,-14.81463 l 16.14627,31.79318 c -14.64831,11.8739 -36.50957,17.81084 -65.58383,17.81084 -27.18796,0 -48.7163,-7.93442 -64.5851,-23.80327 -15.75789,-15.97978 -23.63682,-38.22944 -23.63681,-66.74903 -1e-5,-28.07554 8.65572,-50.82456 25.9672,-68.24714 17.42239,-17.42226 38.28491,-26.13347 62.58762,-26.13366 25.85611,1.9e-4 46.60766,7.71266 62.25471,23.13745 15.64672,15.4251 23.47017,35.06694 23.47035,58.92557 -1.8e-4,5.10476 -1.16537,12.81724 -3.49558,23.13745 M 315.052,368.99376 l 87.55608,0 c -2.88539,-26.07804 -17.31159,-39.11711 -43.27867,-39.11726 -23.74786,1.5e-4 -38.50698,13.03922 -44.27741,39.11726" />
    <path
       inkscape:connector-curvature="0"
       id="path3052"
       style="font-size:340.902771px;font-style:normal;font-variant:normal;font-weight:bold;font-stretch:normal;text-align:start;line-height:125%;letter-spacing:-4.30044985px;word-spacing:0px;writing-mode:lr-tb;text-anchor:start;fill:#c0c0c0;fill-opacity:1;stroke:none;font-family:Trebuchet MS;-inkscape-font-specification:Trebuchet MS Bold"
       d="m 587.90149,476.69107 0,-103.03653 c -1.3e-4,-15.2029 -2.94086,-26.29999 -8.82219,-33.29129 -5.77061,-6.99102 -15.25862,-10.4866 -28.46405,-10.48675 -6.10349,1.5e-4 -12.65077,1.72019 -19.64186,5.16015 -6.88027,3.44024 -12.26235,7.71261 -16.14627,12.81714 l 0,128.83728 -41.61411,0 0,-178.27484 29.96216,0 7.657,16.64565 c 11.31896,-13.31634 28.02007,-19.97459 50.10338,-19.97478 21.19532,1.9e-4 37.89643,6.38101 50.10339,19.14249 12.3176,12.65084 18.47648,30.35069 18.47666,53.09961 l 0,109.36187 -41.61411,0" />
    <path
       inkscape:connector-curvature="0"
       id="path3054"
       style="font-size:340.902771px;font-style:normal;font-variant:normal;font-weight:bold;font-stretch:normal;text-align:start;line-height:125%;letter-spacing:-4.30044985px;word-spacing:0px;writing-mode:lr-tb;text-anchor:start;fill:#c0c0c0;fill-opacity:1;stroke:none;font-family:Trebuchet MS;-inkscape-font-specification:Trebuchet MS Bold"
       d="m 715.76746,271.28383 0,57.09456 85.72506,0 0,36.78687 -85.72506,0 0,111.52581 -43.27867,0 0,-243.85867 160.63046,0 0,38.45143 -117.35179,0" />
    <path
       inkscape:connector-curvature="0"
       id="path3056"
       style="font-size:340.902771px;font-style:normal;font-variant:normal;font-weight:bold;font-stretch:normal;text-align:start;line-height:125%;letter-spacing:-4.30044985px;word-spacing:0px;writing-mode:lr-tb;text-anchor:start;fill:#c0c0c0;fill-opacity:1;stroke:none;font-family:Trebuchet MS;-inkscape-font-specification:Trebuchet MS Bold"
       d="m 863.33011,232.00012 41.61411,-9.98739 0,200.41354 c -7e-5,21.97229 6.54721,35.06684 19.64186,39.28372 -6.4364,12.20681 -17.42252,18.31021 -32.95838,18.31021 -18.8651,0 -28.29762,-13.09456 -28.29759,-39.28372 l 0,-208.73636" />
    <path
       inkscape:connector-curvature="0"
       id="path3058"
       style="font-size:340.902771px;font-style:normal;font-variant:normal;font-weight:bold;font-stretch:normal;text-align:start;line-height:125%;letter-spacing:-4.30044985px;word-spacing:0px;writing-mode:lr-tb;text-anchor:start;fill:#c0c0c0;fill-opacity:1;stroke:none;font-family:Trebuchet MS;-inkscape-font-specification:Trebuchet MS Bold"
       d="m 985.0372,229.33681 c 6.6582,2.5e-4 12.31771,2.38612 16.9786,7.15763 4.7716,4.66102 7.1575,10.32053 7.1576,16.97856 -10e-5,6.65847 -2.386,12.37347 -7.1576,17.14501 -4.66089,4.66098 -10.3204,6.99137 -16.9786,6.99117 -6.6583,2e-4 -12.3733,-2.33019 -17.14501,-6.99117 -4.66081,-4.77154 -6.9912,-10.48654 -6.99117,-17.14501 -3e-5,-6.65803 2.33036,-12.31754 6.99117,-16.97856 4.77171,-4.77151 10.48671,-7.15738 17.14501,-7.15763 m -21.47288,247.35426 0,-144.15127 -22.80453,0 0,-34.12357 64.91801,0 0,178.27484 -42.11348,0" />
    <path
       inkscape:connector-curvature="0"
       id="path3060"
       style="font-size:340.902771px;font-style:normal;font-variant:normal;font-weight:bold;font-stretch:normal;text-align:start;line-height:125%;letter-spacing:-4.30044985px;word-spacing:0px;writing-mode:lr-tb;text-anchor:start;fill:#c0c0c0;fill-opacity:1;stroke:none;font-family:Trebuchet MS;-inkscape-font-specification:Trebuchet MS Bold"
       d="m 1088.2676,472.19675 0,74.40602 -41.6141,0 0,-248.18654 41.6141,0 0,11.98487 c 10.4312,-10.20916 23.2484,-15.31381 38.4515,-15.314 56.817,1.9e-4 85.2255,31.29396 85.2257,93.88143 -2e-4,29.18542 -7.8791,51.65702 -23.6368,67.41486 -15.6471,15.75788 -37.0645,23.63681 -64.2522,23.63681 -13.0947,0 -25.024,-2.60782 -35.7882,-7.82345 m 0,-130.16893 0,93.71497 c 7.546,6.10344 16.3682,9.15513 26.4666,9.1551 19.1979,3e-5 32.9583,-4.54977 41.2812,-13.64943 8.4337,-9.21053 12.6506,-23.69222 12.6507,-43.44512 -10e-5,-21.08437 -4.1615,-35.89898 -12.4842,-44.44387 -8.323,-8.65559 -22.0834,-12.98346 -41.2812,-12.9836 -9.9875,1.4e-4 -18.8652,3.88412 -26.6331,11.65195" />
    <path
       inkscape:connector-curvature="0"
       id="path3062"
       style="font-size:340.902771px;font-style:normal;font-variant:normal;font-weight:bold;font-stretch:normal;text-align:start;line-height:125%;letter-spacing:-4.30044985px;word-spacing:0px;writing-mode:lr-tb;text-anchor:start;fill:#c0c0c0;fill-opacity:1;stroke:none;font-family:Trebuchet MS;-inkscape-font-specification:Trebuchet MS Bold"
       d="m 1282.3832,472.19675 0,74.40602 -41.6141,0 0,-248.18654 41.6141,0 0,11.98487 c 10.4312,-10.20916 23.2484,-15.31381 38.4515,-15.314 56.817,1.9e-4 85.2255,31.29396 85.2257,93.88143 -2e-4,29.18542 -7.8791,51.65702 -23.6368,67.41486 -15.6471,15.75788 -37.0645,23.63681 -64.2522,23.63681 -13.0947,0 -25.024,-2.60782 -35.7882,-7.82345 m 0,-130.16893 0,93.71497 c 7.546,6.10344 16.3682,9.15513 26.4666,9.1551 19.1979,3e-5 32.9583,-4.54977 41.2812,-13.64943 8.4337,-9.21053 12.6506,-23.69222 12.6507,-43.44512 -10e-5,-21.08437 -4.1615,-35.89898 -12.4842,-44.44387 -8.323,-8.65559 -22.0834,-12.98346 -41.2812,-12.9836 -9.9875,1.4e-4 -18.8652,3.88412 -26.6331,11.65195" />
    <path
       inkscape:connector-curvature="0"
       id="path3064"
       style="font-size:340.902771px;font-style:normal;font-variant:normal;font-weight:bold;font-stretch:normal;text-align:start;line-height:125%;letter-spacing:-4.30044985px;word-spacing:0px;writing-mode:lr-tb;text-anchor:start;fill:#c0c0c0;fill-opacity:1;stroke:none;font-family:Trebuchet MS;-inkscape-font-specification:Trebuchet MS Bold"
       d="m 1597.3462,400.28757 -127.3392,0 c 0.7768,14.20434 5.6595,25.24594 14.6482,33.12483 8.9886,7.87897 21.0844,11.81844 36.2875,11.81841 18.9759,3e-5 33.4021,-4.93818 43.2787,-14.81463 l 16.1463,31.79318 c -14.6484,11.8739 -36.5096,17.81084 -65.5839,17.81084 -27.1879,0 -48.7163,-7.93442 -64.5851,-23.80327 -15.7579,-15.97978 -23.6368,-38.22944 -23.6368,-66.74903 0,-28.07554 8.6557,-50.82456 25.9672,-68.24714 17.4224,-17.42226 38.2849,-26.13347 62.5876,-26.13366 25.8561,1.9e-4 46.6077,7.71266 62.2547,23.13745 15.6468,15.4251 23.4702,35.06694 23.4704,58.92557 -2e-4,5.10476 -1.1654,12.81724 -3.4956,23.13745 m -125.841,-31.29381 87.556,0 c -2.8853,-26.07804 -17.3116,-39.11711 -43.2786,-39.11726 -23.7479,1.5e-4 -38.507,13.03922 -44.2774,39.11726" />
    <path
       inkscape:connector-curvature="0"
       id="path3066"
       style="font-size:340.902771px;font-style:normal;font-variant:normal;font-weight:bold;font-stretch:normal;text-align:start;line-height:125%;letter-spacing:-4.30044985px;word-spacing:0px;writing-mode:lr-tb;text-anchor:start;fill:#c0c0c0;fill-opacity:1;stroke:none;font-family:Trebuchet MS;-inkscape-font-specification:Trebuchet MS Bold"
       d="m 1732.7027,337.20058 c -7.4352,-4.88258 -15.5916,-7.32393 -24.4691,-7.32408 -9.6546,1.5e-4 -18.2548,4.38349 -25.8008,13.15006 -7.4351,8.76683 -11.1526,19.47551 -11.1526,32.12609 l 0,101.53842 -41.6141,0 0,-178.27484 41.6141,0 0,16.31273 c 11.6519,-13.09439 27.1324,-19.64167 46.4414,-19.64186 14.2041,1.9e-4 25.0793,2.16412 32.6254,6.4918 l -17.6443,35.62168" />
    <g
       id="g3041"
       style="fill:#f6a800;fill-opacity:1"
       transform="matrix(0.56701446,0,0,0.56701446,-300.27098,120.53097)">
      <path
         inkscape:connector-curvature="0"
         sodipodi:nodetypes="ccssssszscssssccsccccc"
         id="path3043"
         d="m 257.77602,551.60626 0,0 c 0,0 -34.77191,-118.53081 0.0726,-223.76968 2.51891,-7.60773 -7.51653,-16.84969 -20.17251,-12.13376 -20.25022,7.54573 -30.45182,-2.79817 -19.26114,-18.13 1.27062,-1.74082 8.88744,-30.62445 69.35606,-47.11905 5.28675,-1.44212 8.81697,-4.21081 10.76515,-6.68604 15.97314,-20.29431 29.92676,-37.85375 56.10844,-59.85524 26.6391,-22.38587 137.39861,-70.41971 191.04359,20.04307 17.31969,29.20661 20.354,6.54953 34.05339,26.17208 8.60902,23.59649 -24.47333,32.90726 -71.30289,30.37593 -46.82957,-2.53133 -52.88028,-4.39072 -67.4168,4.1226 -18.55247,10.86525 -10.02711,66.59598 -28.35988,74.2569 -20.35988,8.50801 5.01897,-73.05912 -45.20968,-24.86239 -26.05928,25.0051 -92.08829,124.83026 -80.98153,227.48772 10.14029,2.65483 13.14842,2.82239 25.80452,7.48927 4.91589,1.21022 39.15981,17.79656 37.89414,44.37549 -1.26567,26.57895 -49.95865,16.39734 -49.95865,16.39734 -30,5.71429 -29.47979,21.69744 -33.90097,36.43474 -4.28572,14.28571 1.23909,24.81837 -8.84542,26.94337 -6.77841,1.35206 -60.44027,-29.14889 0.31159,-121.54235 z"
         style="fill:#f6a800;fill-opacity:1;fill-rule:evenodd;stroke:none" />
    </g>
  </g>
</svg>
