<?xml version="1.0" encoding="UTF-8" standalone="no"?>
<!-- Created with Inkscape (http://www.inkscape.org/) -->

<svg
   xmlns:dc="http://purl.org/dc/elements/1.1/"
   xmlns:cc="http://creativecommons.org/ns#"
   xmlns:rdf="http://www.w3.org/1999/02/22-rdf-syntax-ns#"
   xmlns:svg="http://www.w3.org/2000/svg"
   xmlns="http://www.w3.org/2000/svg"
   xmlns:xlink="http://www.w3.org/1999/xlink"
   xmlns:sodipodi="http://sodipodi.sourceforge.net/DTD/sodipodi-0.dtd"
   xmlns:inkscape="http://www.inkscape.org/namespaces/inkscape"
   width="2400"
   height="1400"
   id="svg3502"
   sodipodi:version="0.32"
   inkscape:version="0.48.5 r10040"
   version="1.0"
   sodipodi:docname="openflipper-splash.svg"
   inkscape:output_extension="org.inkscape.output.svg.inkscape"
   inkscape:export-filename="/home/born/projects/openflipper-logo/openflipper-logo-white.png"
   inkscape:export-xdpi="22.5"
   inkscape:export-ydpi="22.5">
  <defs
     id="defs3504">
    <linearGradient
       id="linearGradient3181">
      <stop
         id="stop3189"
         offset="0"
         style="stop-color:#ffffff;stop-opacity:1;" />
      <stop
         style="stop-color:#e0e0d0;stop-opacity:1;"
         offset="1"
         id="stop3185" />
    </linearGradient>
    <inkscape:perspective
       sodipodi:type="inkscape:persp3d"
       inkscape:vp_x="0 : 526.18109 : 1"
       inkscape:vp_y="0 : 1000 : 0"
       inkscape:vp_z="744.09448 : 526.18109 : 1"
       inkscape:persp3d-origin="372.04724 : 350.78739 : 1"
       id="perspective3510" />
    <linearGradient
       y2="428.14209"
       x2="549.0155"
       y1="428.14209"
       x1="213.79681"
       gradientUnits="userSpaceOnUse"
       id="linearGradient5476"
       xlink:href="#linearGradient3255"
       inkscape:collect="always"
       gradientTransform="translate(1345.7985,-861.20628)" />
    <filter
       y="-0.5"
       x="-0.5"
       width="4"
       height="2"
       id="filter"
       color-interpolation-filters="sRGB">
      <feGaussianBlur
         id="feGaussianBlur5218"
         stdDeviation="5.0" />
    </filter>
    <clipPath
       id="clipPath">
      <path
         sodipodi:nodetypes="ccccccccc"
         id="rect3167"
         d="m 282.4375,190.6875 c -33.71315,0.0137 -61.03478,27.34935 -61.03125,61.0625 l 0,364.6875 c -0.004,33.71315 27.3181,61.04878 61.03125,61.0625 l 364.71875,0 c 33.71315,-0.0137 61.03478,-27.34935 61.03125,-61.0625 l 0,-364.6875 c 0.004,-33.71315 -27.3181,-61.04878 -61.03125,-61.0625 l -364.71875,0 z"
         style="fill:url(#linearGradient4721);fill-opacity:1;fill-rule:nonzero;stroke:#003010;stroke-width:1;stroke-linejoin:round;stroke-miterlimit:4;stroke-opacity:1;stroke-dasharray:none;stroke-dashoffset:0"
         inkscape:connector-curvature="0" />
    </clipPath>
    <linearGradient
       gradientUnits="userSpaceOnUse"
       y2="434.09375"
       x2="708.1875"
       y1="434.09375"
       x1="221.40625"
       id="linearGradient4721"
       xlink:href="#linearGradient3169"
       inkscape:collect="always" />
    <linearGradient
       gradientUnits="userSpaceOnUse"
       y2="428.14209"
       x2="549.0155"
       y1="428.14209"
       x1="213.79681"
       id="linearGradient3263"
       xlink:href="#linearGradient3255"
       inkscape:collect="always" />
    <inkscape:perspective
       sodipodi:type="inkscape:persp3d"
       inkscape:vp_x="0 : 526.18109 : 1"
       inkscape:vp_y="0 : 1000 : 0"
       inkscape:vp_z="744.09448 : 526.18109 : 1"
       inkscape:persp3d-origin="372.04724 : 350.78739 : 1"
       id="perspective3277" />
    <inkscape:perspective
       id="perspective10"
       inkscape:persp3d-origin="372.04724 : 350.78739 : 1"
       inkscape:vp_z="744.09448 : 526.18109 : 1"
       inkscape:vp_y="0 : 1000 : 0"
       inkscape:vp_x="0 : 526.18109 : 1"
       sodipodi:type="inkscape:persp3d" />
    <linearGradient
       id="linearGradient3181-4">
      <stop
         style="stop-color:#ffffff;stop-opacity:1;"
         offset="0"
         id="stop3189-1" />
      <stop
         id="stop3185-9"
         offset="1"
         style="stop-color:#e0e0d0;stop-opacity:1;" />
    </linearGradient>
    <linearGradient
       id="linearGradient3199">
      <stop
         id="stop3201"
         offset="0"
         style="stop-color:#000000;stop-opacity:1;" />
      <stop
         id="stop3203"
         offset="1"
         style="stop-color:#000000;stop-opacity:0;" />
    </linearGradient>
    <linearGradient
       id="linearGradient3207">
      <stop
         style="stop-color:#fd8d3c;stop-opacity:1;"
         offset="0"
         id="stop3209" />
      <stop
         style="stop-color:#fd8d3c;stop-opacity:1;"
         offset="1"
         id="stop3211" />
    </linearGradient>
    <linearGradient
       id="linearGradient3169">
      <stop
         id="stop3171"
         offset="0"
         style="stop-color:#003010;stop-opacity:1;" />
      <stop
         id="stop3173"
         offset="1"
         style="stop-color:#227c40;stop-opacity:1;" />
    </linearGradient>
    <linearGradient
       id="linearGradient3255">
      <stop
         id="stop3257"
         offset="0"
         style="stop-color:#f07030;stop-opacity:1;" />
      <stop
         id="stop3259"
         offset="1"
         style="stop-color:#a43b06;stop-opacity:1;" />
    </linearGradient>
    <inkscape:path-effect
       prop_scale="1"
       bendpath="m 221.406,434.094 486.782,0"
       id="path-effect5472"
       effect="bend_path"
       is_visible="true"
       scale_y_rel="false"
       vertical="false" />
    <linearGradient
       inkscape:collect="always"
       xlink:href="#linearGradient3255"
       id="linearGradient3850"
       gradientUnits="userSpaceOnUse"
       gradientTransform="matrix(1.5939783,0,0,1.5939783,765.71143,-2570.7723)"
       x1="213.79681"
       y1="428.14209"
       x2="549.0155"
       y2="428.14209" />
    <linearGradient
       inkscape:collect="always"
       xlink:href="#linearGradient3255"
       id="linearGradient3852"
       gradientUnits="userSpaceOnUse"
       gradientTransform="matrix(1.5939783,0,0,1.5939783,765.71143,-2570.7723)"
       x1="213.79681"
       y1="428.14209"
       x2="549.0155"
       y2="428.14209" />
  </defs>
  <sodipodi:namedview
     id="base"
     pagecolor="#ffffff"
     bordercolor="#666666"
     borderopacity="1.0"
     inkscape:pageopacity="0.0"
     inkscape:pageshadow="2"
     inkscape:zoom="0.35"
     inkscape:cx="1373.3736"
     inkscape:cy="717.32475"
     inkscape:document-units="px"
     inkscape:current-layer="g4103"
     showgrid="false"
     inkscape:window-width="2560"
     inkscape:window-height="1356"
     inkscape:window-x="0"
     inkscape:window-y="511"
     showborder="true"
     borderlayer="true"
     inkscape:showpageshadow="false"
     showguides="true"
     inkscape:guide-bbox="true"
     inkscape:object-nodes="true"
     fit-margin-top="0"
     fit-margin-left="0"
     fit-margin-right="0"
     fit-margin-bottom="0"
     inkscape:snap-bbox="true"
     inkscape:bbox-nodes="false"
     inkscape:snap-page="true"
     inkscape:window-maximized="1"
     inkscape:snap-global="true"
     inkscape:snap-nodes="true"
     inkscape:snap-bbox-midpoints="true">
    <sodipodi:guide
       orientation="0,1"
       position="884.89363,593.46462"
       id="guide3848" />
    <sodipodi:guide
       orientation="1,0"
       position="2280,0"
       id="guide4095" />
    <sodipodi:guide
       orientation="0,1"
       position="2400,120"
       id="guide4097" />
    <sodipodi:guide
       orientation="1,0"
       position="120,1400"
       id="guide4099" />
    <sodipodi:guide
       orientation="0,1"
       position="0,1280"
       id="guide4101" />
    <sodipodi:guide
       orientation="0,1"
       position="0,1160"
       id="guide4510" />
    <sodipodi:guide
       orientation="0,1"
       position="0,240"
       id="guide4512" />
    <sodipodi:guide
       orientation="0,1"
       position="-520,360"
       id="guide4517" />
    <sodipodi:guide
       orientation="0,1"
       position="0,1040"
       id="guide4519" />
  </sodipodi:namedview>
  <metadata
     id="metadata3507">
    <rdf:RDF>
      <cc:Work
         rdf:about="">
        <dc:format>image/svg+xml</dc:format>
        <dc:type
           rdf:resource="http://purl.org/dc/dcmitype/StillImage" />
        <dc:title />
      </cc:Work>
    </rdf:RDF>
  </metadata>
  <g
     style="display:inline"
     inkscape:label="Backdrop (white)"
     id="g4307"
     inkscape:groupmode="layer"
     sodipodi:insensitive="true">
    <rect
       y="0"
       x="0"
       height="1400"
       width="2400"
       id="rect4309"
       style="fill:#ffffff;fill-opacity:1;stroke:none" />
  </g>
  <g
     style="display:inline"
     transform="translate(449.65295,323.88293)"
     id="g4103"
     inkscape:groupmode="layer"
     inkscape:label="OpenFlipper Logo">
    <flowRoot
       xml:space="preserve"
       id="flowRoot4413"
       style="font-size:40px;font-style:normal;font-weight:normal;line-height:125%;letter-spacing:0px;word-spacing:0px;fill:#000000;fill-opacity:1;stroke:none;font-family:Sans"
       transform="translate(-449.65295,-323.88293)"><flowRegion
         id="flowRegion4415"><rect
           id="rect4417"
           width="22.857143"
           height="140"
           x="4245.7144"
           y="-40" /></flowRegion><flowPara
         id="flowPara4419" /></flowRoot>    <text
       xml:space="preserve"
       style="font-size:340.902771px;font-style:normal;font-variant:normal;font-weight:bold;font-stretch:normal;text-align:start;line-height:125%;letter-spacing:0px;word-spacing:0px;writing-mode:lr-tb;text-anchor:start;fill:#c0c0c0;fill-opacity:1;stroke:none;font-family:Trebuchet MS;-inkscape-font-specification:Trebuchet MS Bold"
       x="-200.51926"
       y="481.44821"
       id="text4409"
       sodipodi:linespacing="125%"><tspan
         sodipodi:role="line"
         id="tspan4411"
         x="-200.51926"
         y="481.44821"
         dx="0 0 0 0 0 -8.6008997"
         style="letter-spacing:-4.30044985px">OpenFlipper</tspan></text>
    <g
       id="g4443"
       style="fill:#604ec0;fill-opacity:1"
       transform="matrix(0.56701446,0,0,0.56701446,-330.56691,125.28811)">
      <path
         sodipodi:type="inkscape:offset"
         inkscape:radius="17.694496"
         inkscape:original="M 454.3125 151 C 411.23234 150.6082 369.64074 171.3142 354.65625 183.90625 C 328.47457 205.90774 314.50439 223.48694 298.53125 243.78125 C 296.58307 246.25648 293.068 249.02663 287.78125 250.46875 C 227.31263 266.96335 219.67687 295.82168 218.40625 297.5625 C 207.21557 312.89433 217.43728 323.23323 237.6875 315.6875 C 250.34348 310.97157 260.36266 320.23602 257.84375 327.84375 C 222.99924 433.08262 257.78125 551.59375 257.78125 551.59375 C 197.02939 643.98721 250.69034 674.50831 257.46875 673.15625 C 267.55326 671.03125 262.02678 660.50446 266.3125 646.21875 C 270.73368 631.48145 270.21875 615.49554 300.21875 609.78125 C 300.21875 609.78125 348.89058 619.95395 350.15625 593.375 C 351.42192 566.79607 317.19714 550.21022 312.28125 549 C 299.62515 544.33312 296.60904 544.15483 286.46875 541.5 C 275.36199 438.84254 341.37822 339.03635 367.4375 314.03125 C 417.66615 265.83452 392.29637 347.38301 412.65625 338.875 C 430.98902 331.21408 422.47878 275.49025 441.03125 264.625 C 455.56777 256.11168 461.60793 257.96867 508.4375 260.5 C 555.26706 263.03133 588.35902 253.72149 579.75 230.125 C 566.05061 210.50245 563.00719 233.17536 545.6875 203.96875 C 522.21782 164.39128 487.81929 151.30474 454.3125 151 z "
         style="fill:#ffffff;fill-opacity:1;fill-rule:evenodd;stroke:none"
         id="path4447"
         d="m 454.46875,133.3125 c -48.8528,-0.4443 -91.17107,20.24192 -111.1875,37.0625 -27.36225,22.99357 -42.65336,42.13664 -58.65625,62.46875 0.48115,-0.61132 0.15767,0.11032 -1.5,0.5625 -32.57945,8.88701 -52.61781,21.6583 -64.65625,33.53125 -6.01922,5.93647 -9.99563,11.64015 -12.53125,16.0625 -1.26781,2.21118 -2.19826,4.12209 -2.78125,5.40625 -0.1309,0.28834 -0.15771,0.3549 -0.25,0.5625 -3.45918,5.1344 -6.00792,10.69753 -6.65625,17.21875 -0.72527,7.29502 1.90978,16.14561 7.71875,21.75 9.84996,9.50306 21.93082,9.40845 33.625,6.15625 -26.42249,92.73543 -5.67251,188.27479 1.15625,214.78125 -28.00978,45.41787 -31.67916,80.20323 -23.15625,104.5 4.4821,12.77738 11.96573,22.05795 19.3125,28.0625 3.67338,3.00227 7.29525,5.21493 10.96875,6.84375 3.6735,1.62882 5.75716,4.07484 15.0625,2.21875 a 17.696266,17.696266 0 0 0 0.1875,-0.0312 c 5.7244,-1.20624 12.71742,-5.31387 16.28125,-10.875 3.56383,-5.56113 3.97919,-10.36989 4.28125,-13.78125 0.60412,-6.82272 0.36488,-10.50795 1.5625,-14.5 2.7709,-9.23637 3.8638,-14.86402 5.34375,-17.1875 1.34333,-2.109 3.07339,-4.25869 12.28125,-6.34375 4.52015,0.81425 13.24953,2.17833 24.96875,1.4375 7.73862,-0.48919 16.3322,-1.75933 24.9375,-6.8125 8.6053,-5.05317 16.48724,-16.1071 17.0625,-28.1875 1.00159,-21.03324 -11.6335,-36.55773 -22.875,-46.0625 -5.62075,-4.75238 -11.22143,-8.3187 -15.96875,-10.9375 -4.07341,-2.24704 -6.51121,-3.53024 -10.625,-4.75 l 0.0312,-0.0625 c -6.64614,-2.45073 -11.10824,-3.83245 -15.09375,-4.90625 -1.94744,-43.01883 9.85585,-85.99529 25.84375,-121.59375 17.48785,-38.93823 40.60173,-69.56591 50.53125,-79.09375 1.95031,-1.87142 3.46885,-3.15033 5.0625,-4.5 0.41458,3.96295 0.92721,8.39048 2.03125,13.34375 0.94627,4.24541 1.81807,9.45664 7.78125,15.28125 5.96318,5.82461 18.32512,7.00013 24.90625,4.25 12.07384,-5.04543 16.85258,-15.64975 19.59375,-24.21875 2.74117,-8.569 3.94414,-17.20855 5.1875,-25.34375 1.24336,-8.1352 2.51215,-15.74207 4.03125,-20.71875 1.13932,-3.73251 2.40988,-5.19988 2.3125,-5.3125 5.03555,-2.94647 5.68283,-3.28756 12.5625,-3.5 7.24951,-0.22386 20.70579,0.78646 44.3125,2.0625 24.80654,1.3409 46.28122,0.11625 63.6875,-6.5 8.70314,-3.30812 17.06245,-8.22871 22.625,-17.03125 5.56255,-8.80254 6.12542,-20.88254 2.59375,-30.5625 A 17.696266,17.696266 0 0 0 594.25,220 c -4.51644,-6.4692 -9.74817,-11.57072 -16.0625,-14.34375 -5.51836,-2.42347 -9.72081,-2.47921 -11.40625,-2.53125 -0.6803,-0.66003 -2.65769,-2.76208 -5.875,-8.1875 -26.46582,-44.62994 -68.43419,-61.27936 -106.4375,-61.625 z" />
    </g>
    <g
       transform="matrix(0.56701446,0,0,0.56701446,-330.56691,125.28811)"
       style="fill:#f6a800;fill-opacity:1"
       id="g4109">
      <path
         style="fill:#f6a800;fill-opacity:1;fill-rule:evenodd;stroke:none"
         d="m 257.77602,551.60626 0,0 c 0,0 -34.77191,-118.53081 0.0726,-223.76968 2.51891,-7.60773 -7.51653,-16.84969 -20.17251,-12.13376 -20.25022,7.54573 -30.45182,-2.79817 -19.26114,-18.13 1.27062,-1.74082 8.88744,-30.62445 69.35606,-47.11905 5.28675,-1.44212 8.81697,-4.21081 10.76515,-6.68604 15.97314,-20.29431 29.92676,-37.85375 56.10844,-59.85524 26.6391,-22.38587 137.39861,-70.41971 191.04359,20.04307 17.31969,29.20661 20.354,6.54953 34.05339,26.17208 8.60902,23.59649 -24.47333,32.90726 -71.30289,30.37593 -46.82957,-2.53133 -52.88028,-4.39072 -67.4168,4.1226 -18.55247,10.86525 -10.02711,66.59598 -28.35988,74.2569 -20.35988,8.50801 5.01897,-73.05912 -45.20968,-24.86239 -26.05928,25.0051 -92.08829,124.83026 -80.98153,227.48772 10.14029,2.65483 13.14842,2.82239 25.80452,7.48927 4.91589,1.21022 39.15981,17.79656 37.89414,44.37549 -1.26567,26.57895 -49.95865,16.39734 -49.95865,16.39734 -30,5.71429 -29.47979,21.69744 -33.90097,36.43474 -4.28572,14.28571 1.23909,24.81837 -8.84542,26.94337 -6.77841,1.35206 -60.44027,-29.14889 0.31159,-121.54235 z"
         id="path4111"
         sodipodi:nodetypes="ccssssszscssssccsccccc"
         inkscape:connector-curvature="0" />
    </g>
  </g>
  <g
     style="display:inline"
     inkscape:label="VCI Logo"
     id="g4311"
     inkscape:groupmode="layer">
    <g
       id="g4313"
       inkscape:label="ink_ext_XXXXXX"
       transform="matrix(2.6439538,0,0,-2.6439781,1537.9045,1340.4337)"
       style="display:inline">
      <g
         id="g4315"
         transform="scale(0.1,0.1)">
        <path
           inkscape:connector-curvature="0"
           d="m 2243.31,412.035 20.52,0 c 19.61,0 30.18,-9.961 30.18,-29.879 0,-23.23 -11.78,-32.281 -32.6,-32.281 l -18.1,0 0,62.16 z m -43.45,-183.469 43.45,0 0,91.129 23.23,0 c 17.5,0 25.05,-10.261 25.66,-27.16 l 1.2,-41.34 c 0.3,-8.441 1.21,-16.59 5.43,-22.629 l 47.07,0 0,1.809 c -8.14,4.23 -9.35,15.988 -9.65,38.621 -0.6,45.57 -5.13,61.867 -34.7,65.789 l 0,0.602 c 24.44,5.129 35.91,24.437 35.91,53.109 0,36.82 -21.73,55.527 -57.34,55.527 l -80.26,0 0,-215.457"
           style="fill:#8ebae5;fill-opacity:1;fill-rule:nonzero;stroke:none"
           id="path4317" />
        <path
           inkscape:connector-curvature="0"
           d="m 1559.23,444.02 0,-150.27 c 0,-57.641 33.49,-69.41 68.8,-69.41 35.3,0 68.8,14.48 68.8,69.41 l 0,150.27 -43.45,0 0,-150.27 c 0,-21.43 -5.13,-37.422 -25.35,-37.422 -20.22,0 -25.35,15.992 -25.35,37.422 l 0,150.27 -43.45,0"
           style="fill:#8ebae5;fill-opacity:1;fill-rule:nonzero;stroke:none"
           id="path4319" />
        <path
           inkscape:connector-curvature="0"
           d="m 1707.47,444.02 0,-215.45 39.83,0 0,150.871 0.6,0 53.11,-150.871 49.49,0 0,215.45 -39.83,0 0,-147.559 -0.6,0 -52.51,147.559 -50.09,0"
           style="fill:#8ebae5;fill-opacity:1;fill-rule:nonzero;stroke:none"
           id="path4321" />
        <path
           inkscape:connector-curvature="0"
           d="m 1861.67,228.57 43.4492,0 0,215.449 -43.4492,0 0,-215.449 z"
           style="fill:#8ebae5;fill-opacity:1;fill-rule:nonzero;stroke:none"
           id="path4323" />
        <path
           inkscape:connector-curvature="0"
           d="m 1908.1,444.02 49.48,-215.45 55.83,0 49.48,215.45 -44.96,0 -31.98,-159.329 -0.9,0 -30.48,159.329 -46.47,0"
           style="fill:#8ebae5;fill-opacity:1;fill-rule:nonzero;stroke:none"
           id="path4325" />
        <path
           inkscape:connector-curvature="0"
           d="m 2066.77,444.02 0,-215.45 123.42,0 0,35.602 -79.97,0 0,57.937 72.43,0 0,35.61 -72.43,0 0,50.691 76.95,0 0,35.61 -120.4,0"
           style="fill:#8ebae5;fill-opacity:1;fill-rule:nonzero;stroke:none"
           id="path4327" />
        <path
           inkscape:connector-curvature="0"
           d="m 2341.06,295.859 0,-8.75 c 0,-39.839 19.31,-62.769 68.5,-62.769 47.07,0 74.83,20.519 74.83,66.09 0,26.25 -8.45,42.84 -41.04,57.027 l -33.49,14.481 c -18.41,7.851 -22.33,15.992 -22.33,29.269 0,12.672 5.13,25.051 24.74,25.051 16.59,0 23.54,-11.77 23.54,-31.988 l 41.64,0 0,6.039 c 0,41.339 -28.07,57.929 -66.69,57.929 -41.04,0 -66.68,-21.422 -66.68,-63.359 0,-35.91 17.8,-51.91 56.42,-65.18 28.67,-9.961 38.63,-17.203 38.63,-36.82 0,-18.102 -12.68,-26.551 -25.95,-26.551 -22.94,0 -28.67,12.969 -28.67,33.192 l 0,6.339 -43.45,0"
           style="fill:#8ebae5;fill-opacity:1;fill-rule:nonzero;stroke:none"
           id="path4329" />
        <path
           inkscape:connector-curvature="0"
           d="m 2490.07,228.57 43.4492,0 0,215.449 -43.4492,0 0,-215.449 z"
           style="fill:#8ebae5;fill-opacity:1;fill-rule:nonzero;stroke:none"
           id="path4331" />
        <path
           inkscape:connector-curvature="0"
           d="m 2759.22,444.02 -30.18,-83.282 -0.6,0 -28.36,83.282 -160.86,0 0,-35.61 47.07,0 0,-179.84 43.46,0 0,179.84 36.65,0 40.61,-95.051 0,-84.789 43.46,0 0,84.789 55.83,130.661 -47.08,0"
           style="fill:#8ebae5;fill-opacity:1;fill-rule:nonzero;stroke:none"
           id="path4333" />
        <path
           inkscape:connector-curvature="0"
           d="m 1177.51,463.617 -72,0 0,216.41 118.07,0 c 32.02,0.008 59.63,-20.722 68.64,-48.203 8.34,-25.457 1.21,-53.117 -17.61,-72.808 2.5,-6.782 4.94,-12.09 7.26,-18.18 5.23,-12.051 10.01,-24.102 15.24,-36 l 17.13,-41.219 -73.01,0 c 0,-0.043 -0.58,1.738 -1.16,2.469 -2.9,6.379 -5.52,13.211 -8.42,19.59 l -17.56,41.66 c -6.97,16.84 -13.94,32.75 -20.9,49.582 8.69,0.238 15.19,-1.391 23.58,2.469 5.9,2.898 14.84,10.109 15.07,23.937 -0.23,6.852 -2.13,12.043 -6.66,17.442 -4.55,5.019 -11.13,8.742 -19.7,8.859 0,0 -27.98,0.012 -27.97,0 l 0,-166.008"
           style="fill:#00549f;fill-opacity:1;fill-rule:nonzero;stroke:none"
           id="path4335" />
        <path
           inkscape:connector-curvature="0"
           d="m 1929.57,680.027 0,-216.41 -72,0 0,88.242 -50.41,0 0,-88.242 c -13.06,0 -27.14,0.141 -40.2,0 l -31.8,0 0,166.332 -50.36,0 0,-166.332 -72,0 0,166.332 -50.79,0 0,-166.332 -74.17,0 c -12.92,31.203 -26.56,62.703 -39.19,93.762 -1.45,6.531 -2.9,13.07 -4.79,19.449 l 0,-113.211 -74.32,0 c -14.73,34.25 -28.88,67.821 -43.57,102.582 -5.09,12.039 -9.26,21.84 -14.52,34.36 l -0.72,1.64 -11.44,26.852 -16.38,38.347 c -1.44,4.352 -3.76,8.282 -5.22,12.629 l 74.15,0 c 15.24,-37.007 30.62,-73.589 46.59,-110.019 l 0.44,-0.867 c -0.58,4.207 -1.9,9.578 -2.62,13.636 l 0,64.59 c 0.14,10.313 0,22.071 0,32.66 l 74.31,0 c 0.94,-2.359 1.46,-3.629 2.18,-5.519 8.71,-20.457 16.99,-40.778 25.7,-61.098 l 19.45,-44.269 c -0.44,4.648 -1.46,9.136 -2.04,13.636 l 0,97.25 291.31,0 0,-78.089 50.41,0 0,78.089 72,0"
           style="fill:#00549f;fill-opacity:1;fill-rule:nonzero;stroke:none"
           id="path4337" />
        <path
           inkscape:connector-curvature="0"
           d="m 2186.62,680.051 -53.96,0 -45.16,-170.59 -45.16,170.59 -53.96,0 -57.29,-216.434 45.47,0 10,45.774 57.61,0 9.99,-45.774 66.68,0 10,45.774 57.6,0 10,-45.774 45.47,0 -57.29,216.434 z m -192.47,-134.891 20.91,97.301 0.6,0 20.92,-97.301 -42.43,0 z m 144.27,0 20.92,97.301 0.6,0 20.92,-97.301 -42.44,0"
           style="fill:#8ebae5;fill-opacity:1;fill-rule:nonzero;stroke:none"
           id="path4339" />
        <path
           inkscape:connector-curvature="0"
           d="m 2373.9,606.199 c 0,31.379 -4.52,76.949 -66.69,76.949 -65.17,0 -73.33,-46.468 -73.33,-111.949 0,-65.48 8.16,-111.949 73.33,-111.949 57.03,0 68.5,40.129 68.5,86.602 l -43.45,0 c 0,-46.473 -11.47,-54.622 -27.16,-54.622 -18.71,0 -27.76,11.77 -27.76,76.95 0,60.949 5.13,82.98 27.16,82.98 19.61,0 25.95,-13.582 25.95,-44.961 l 43.45,0"
           style="fill:#8ebae5;fill-opacity:1;fill-rule:nonzero;stroke:none"
           id="path4341" />
        <path
           inkscape:connector-curvature="0"
           d="m 2384.3,463.617 43.64,0 0,96.078 50.92,0 0,-96.078 43.65,0 0,216.41 -43.65,0 0,-82.75 -50.92,0 0,82.75 -43.64,0 0,-216.41"
           style="fill:#8ebae5;fill-opacity:1;fill-rule:nonzero;stroke:none"
           id="path4343" />
        <path
           inkscape:connector-curvature="0"
           d="m 2531.97,680.066 0,-216.449 124,0 0,35.77 -80.34,0 0,58.211 72.76,0 0,35.769 -72.76,0 0,50.93 77.3,0 0,35.769 -120.96,0"
           style="fill:#8ebae5;fill-opacity:1;fill-rule:nonzero;stroke:none"
           id="path4345" />
        <path
           inkscape:connector-curvature="0"
           d="m 2662.44,680.027 0,-216.41 40.01,0 0,151.547 0.6,0 53.35,-151.547 49.71,0 0,216.41 -40.01,0 0,-148.211 -0.61,0 -52.74,148.211 -50.31,0"
           style="fill:#8ebae5;fill-opacity:1;fill-rule:nonzero;stroke:none"
           id="path4347" />
        <path
           inkscape:connector-curvature="0"
           d="m 958.781,226.77 10,0 0,453.551 -10,0 0,-453.551 z"
           style="fill:#00549f;fill-opacity:1;fill-rule:nonzero;stroke:none"
           id="path4349" />
        <path
           inkscape:connector-curvature="0"
           d="m 538.297,311.754 c -3,-0.899 -6.211,-1.192 -9.383,-0.899 -11.141,1.52 -20.461,11.547 -21.141,22.758 -0.339,6.192 2.09,12.289 6.122,17.012 -1.981,-0.152 -3.961,-0.301 -5.95,-0.301 -10.34,0 -20.742,2.031 -30.351,6.012 -8.078,3.316 -15.528,8.039 -22.078,13.769 -7.942,-0.589 -15.711,-4.632 -19.75,-11.511 -6.68,-11.36 -1.801,-27.86 9.91,-33.899 0.121,-0.07 0.25,-0.152 0.371,-0.222 2.59,-1.52 5.238,-2.899 7.906,-4.207 0.652,-0.321 1.313,-0.641 1.973,-0.954 2.34,-1.097 4.711,-2.117 7.097,-3.07 1.332,-0.519 2.692,-0.988 4.051,-1.457 1.871,-0.672 3.742,-1.34 5.641,-1.922 7.25,-2.148 14.769,-3.699 22.539,-4.48 0.109,-0.02 0.223,-0.02 0.34,-0.028 3.953,-0.39 7.953,-0.589 12,-0.601 0.191,0 0.39,0 0.582,0 4.051,0.012 8.051,0.211 11.988,0.601 0.121,0.008 0.25,0.008 0.371,0.028 4.059,0.41 8.07,1.012 12.012,1.812 0.156,0.028 0.308,0.078 0.457,0.11 3.34,0.687 6.601,1.558 9.832,2.507 1.891,0.563 3.75,1.223 5.617,1.872 1.402,0.492 2.793,0.98 4.172,1.519 2.301,0.902 4.578,1.871 6.828,2.922 0.742,0.34 1.473,0.699 2.203,1.051 10.141,4.976 19.688,11.488 28.399,19.437 -14.5,-13.129 -32.168,-22.859 -51.758,-27.859"
           style="fill:#fff59b;fill-opacity:1;fill-rule:nonzero;stroke:none"
           id="path4351" />
        <path
           inkscape:connector-curvature="0"
           d="m 630.055,430.082 c -0.02,3.711 -0.211,7.383 -0.559,11.012 -0.141,1.34 -0.383,2.629 -0.551,3.961 -0.34,2.507 -0.679,5.027 -1.16,7.488 -0.308,1.57 -0.719,3.102 -1.09,4.648 -0.511,2.121 -1.031,4.243 -1.64,6.321 -0.52,1.742 -1.11,3.441 -1.7,5.14 -0.609,1.762 -1.25,3.52 -1.941,5.25 -0.758,1.891 -1.57,3.77 -2.43,5.621 -0.64,1.379 -1.308,2.739 -1.988,4.09 -1.051,2.059 -2.121,4.102 -3.281,6.078 -0.578,1.012 -1.199,1.981 -1.809,2.961 -0.5,0.813 -1.051,1.602 -1.57,2.391 -0.262,0.41 -0.531,0.809 -0.789,1.219 -0.172,0.261 -0.344,0.519 -0.512,0.769 -1.66,2.473 -3.469,4.883 -5.332,7.242 -0.598,0.77 -1.18,1.551 -1.797,2.301 -1.531,1.848 -3.222,3.61 -4.883,5.379 -1.207,1.309 -2.41,2.629 -3.668,3.891 -0.218,0.218 -0.421,0.461 -0.64,0.679 -1.551,1.5 -3.16,2.918 -4.781,4.329 -1.149,1.019 -2.321,2.031 -3.508,3.011 -8.153,6.699 -17.063,12.5 -26.852,16.852 -11.48,5.039 -24.039,8.308 -37.14,9.597 -4.098,0.43 -8.25,0.653 -12.457,0.653 -0.024,0 -0.063,0 -0.082,0 -0.559,0 -1.09,-0.082 -1.641,-0.082 -3.43,-0.051 -6.84,-0.219 -10.199,-0.551 -1.602,-0.148 -3.16,-0.398 -4.739,-0.617 -2.152,-0.293 -4.293,-0.621 -6.41,-1.031 -2.16,-0.422 -4.32,-0.879 -6.441,-1.422 -1.07,-0.258 -2.129,-0.571 -3.192,-0.86 -15.699,-4.437 -30.078,-11.929 -42.628,-21.757 -6.481,-5.09 -12.372,-10.864 -17.719,-17.102 -5.34,-9.551 -3.711,-22.871 4.5,-30.359 5.75,-5.2 14.051,-6.93 21.66,-5.45 3.09,4.828 6.66,9.368 10.738,13.43 7.34,7.309 16.16,13.207 25.77,17.168 4.062,1.672 8.281,2.922 12.551,3.902 5.851,1.328 11.832,2.098 17.8,2.098 10.399,0 20.801,-2.051 30.41,-6 9.598,-3.961 18.43,-9.859 25.77,-17.168 7.34,-7.312 13.219,-16.082 17.191,-25.59 3.95,-9.57 6.047,-19.929 6.047,-30.242 0,-10.367 -2.097,-20.668 -6.047,-30.238 -3.972,-9.571 -9.851,-18.301 -17.191,-25.66 -7.34,-7.313 -16.172,-13.141 -25.77,-17.09 -7.769,-3.223 -16.07,-5.102 -24.46,-5.723 -4.032,-4.719 -6.461,-10.816 -6.122,-17.008 0.68,-11.211 10,-21.242 21.141,-22.761 3.172,-0.29 6.383,0 9.383,0.902 19.59,5 37.258,14.738 51.758,27.859 0.32,0.289 0.64,0.578 0.949,0.871 1.031,0.95 2.09,1.828 3.09,2.821 0.742,0.738 1.371,1.547 2.09,2.308 1.32,1.379 2.589,2.789 3.832,4.219 1.078,1.23 2.168,2.449 3.199,3.73 8.359,10.352 15.051,22.071 19.66,34.77 0.148,0.41 0.309,0.813 0.449,1.223 0.86,2.449 1.602,4.957 2.313,7.476 0.347,1.293 0.679,2.582 0.988,3.883 0.5,2.027 0.949,4.059 1.34,6.129 0.379,2.07 0.68,4.18 0.961,6.289 0.199,1.512 0.437,3 0.59,4.52 0.359,3.781 0.578,7.601 0.578,11.472 0,0.02 0,0.028 0,0.039 0,-0.011 -0.008,-0.019 0,-0.031 0,0.25 -0.039,0.5 -0.039,0.75"
           style="fill:#ffed00;fill-opacity:1;fill-rule:nonzero;stroke:none"
           id="path4353" />
        <path
           inkscape:connector-curvature="0"
           d="m 678.031,445.875 c -0.172,1.813 -0.5,3.57 -0.73,5.359 -0.461,3.614 -0.949,7.211 -1.641,10.743 -0.398,2.058 -0.918,4.078 -1.39,6.121 -0.75,3.218 -1.528,6.418 -2.458,9.566 -0.589,2 -1.261,3.973 -1.929,5.953 -1.063,3.16 -2.184,6.289 -3.422,9.36 -0.719,1.769 -1.469,3.531 -2.238,5.281 -1.461,3.277 -3.024,6.508 -4.672,9.68 -0.739,1.41 -1.461,2.82 -2.239,4.207 -1.992,3.57 -4.132,7.05 -6.371,10.46 -0.589,0.903 -1.148,1.833 -1.761,2.719 -2.797,4.071 -5.758,8.031 -8.887,11.84 -0.172,0.203 -0.32,0.422 -0.481,0.621 -1.89,2.281 -3.98,4.379 -5.98,6.551 -2.18,2.359 -4.34,4.738 -6.652,6.961 -1.75,1.687 -3.59,3.277 -5.399,4.891 -2.98,2.617 -5.988,5.187 -9.148,7.597 -1.321,1.02 -2.66,2.012 -4.012,2.992 -4.32,3.098 -8.75,6.071 -13.371,8.77 -0.359,0.211 -0.707,0.437 -1.07,0.641 -5.457,3.148 -11.098,6.027 -16.938,8.578 -21.14,9.351 -44.82,14.73 -69.351,14.73 13.171,0.629 25.66,-11.148 25.66,-24.301 0,-13.109 -12.461,-24.859 -25.61,-24.23 0.008,0 0.032,0 0.039,0 4.2,-0.008 8.36,-0.231 12.45,-0.649 20.25,-2.082 39.019,-9.23 55.152,-20.031 3,-2.07 6.027,-4.109 8.84,-6.418 1.187,-0.98 2.359,-1.992 3.508,-3.012 1.632,-1.41 3.23,-2.839 4.781,-4.328 0.23,-0.222 0.422,-0.461 0.641,-0.679 1.269,-1.262 2.46,-2.582 3.679,-3.891 1.649,-1.781 3.34,-3.531 4.879,-5.383 0.25,-0.308 0.492,-0.629 0.731,-0.937 0.359,-0.449 0.711,-0.91 1.058,-1.36 1.871,-2.371 3.672,-4.769 5.332,-7.242 0.071,-0.097 0.141,-0.199 0.199,-0.301 0.102,-0.16 0.211,-0.308 0.313,-0.468 0.269,-0.411 0.527,-0.809 0.797,-1.219 0.519,-0.801 1.062,-1.582 1.562,-2.391 0.61,-0.98 1.231,-1.961 1.809,-2.961 1.16,-1.988 2.238,-4.031 3.281,-6.078 0.688,-1.351 1.36,-2.722 1.988,-4.101 0.86,-1.852 1.672,-3.719 2.43,-5.621 0.692,-1.731 1.332,-3.481 1.942,-5.25 0.597,-1.688 1.179,-3.399 1.699,-5.129 0.621,-2.078 1.14,-4.2 1.648,-6.321 0.371,-1.55 0.774,-3.078 1.082,-4.648 0.489,-2.473 0.828,-4.981 1.16,-7.5 0.18,-1.32 0.418,-2.621 0.551,-3.949 0.36,-3.633 0.539,-7.301 0.559,-11.012 0.011,-0.238 0.039,-0.481 0.039,-0.719 -0.66,13.117 11.199,25.5 24.371,25.5 13.141,0 24.922,-12.262 24.391,-25.301 -0.012,5.508 -0.301,10.942 -0.821,16.309 m -74.332,58.402 0,0 z m 5.332,-7.242 0.012,0 -0.012,0"
           style="fill:#fdd48f;fill-opacity:1;fill-rule:nonzero;stroke:none"
           id="path4355" />
        <path
           inkscape:connector-curvature="0"
           d="m 678.852,429.566 c 0.523,13.043 -11.25,25.301 -24.387,25.301 -13.184,0 -25.031,-12.39 -24.371,-25.5 0,-0.019 0,-0.027 0,-0.039 0,-3.871 -0.223,-7.691 -0.582,-11.469 -0.137,-1.531 -0.391,-3.019 -0.59,-4.519 -0.277,-2.121 -0.57,-4.223 -0.957,-6.301 -0.383,-2.07 -0.852,-4.101 -1.344,-6.121 -0.309,-1.309 -0.629,-2.602 -0.988,-3.879 -0.699,-2.531 -1.461,-5.031 -2.309,-7.492 -0.152,-0.41 -0.301,-0.809 -0.453,-1.207 -1.168,-3.293 -2.539,-6.492 -3.988,-9.633 -1.168,-2.527 -2.461,-4.988 -3.801,-7.41 -0.277,-0.508 -0.539,-1.027 -0.82,-1.527 -3.25,-5.704 -6.938,-11.122 -11.039,-16.204 -1.02,-1.277 -2.129,-2.5 -3.211,-3.738 -1.25,-1.43 -2.508,-2.851 -3.828,-4.219 -0.52,-0.55 -1.012,-1.121 -1.52,-1.671 -0.383,-0.391 -0.75,-0.77 -1.141,-1.149 -0.832,-0.781 -1.679,-1.531 -2.519,-2.301 -0.313,-0.3 -0.633,-0.59 -0.949,-0.879 -4.063,-3.703 -8.321,-7.07 -12.731,-10.14 -0.672,-0.461 -1.34,-0.93 -2.031,-1.379 -1.691,-1.133 -3.41,-2.223 -5.141,-3.262 -2.781,-1.629 -5.578,-3.23 -8.5,-4.648 -0.73,-0.364 -1.461,-0.711 -2.199,-1.051 -2.25,-1.051 -4.531,-2.02 -6.832,-2.93 -1.379,-0.543 -2.777,-1.019 -4.168,-1.511 -1.871,-0.661 -3.73,-1.321 -5.609,-1.879 -3.25,-0.969 -6.532,-1.813 -9.84,-2.5 -0.152,-0.032 -0.301,-0.082 -0.461,-0.11 -3.941,-0.801 -7.941,-1.402 -12.012,-1.82 -0.117,-0.012 -0.238,-0.012 -0.367,-0.031 -3.941,-0.379 -7.941,-0.578 -11.992,-0.59 -0.098,0 -0.188,-0.02 -0.277,-0.02 -0.102,0 -0.204,0.02 -0.293,0.02 -4.02,0.012 -8.02,0.191 -12.008,0.601 -0.11,0.008 -0.231,0.008 -0.34,0.02 -7.621,0.801 -15.16,2.269 -22.539,4.488 -1.91,0.571 -3.774,1.25 -5.641,1.91 -1.351,0.481 -2.711,0.942 -4.051,1.469 -2.41,0.942 -4.769,1.981 -7.101,3.07 -0.66,0.313 -1.32,0.622 -1.969,0.942 -2.699,1.32 -5.332,2.711 -7.898,4.211 -0.063,0.027 -0.114,0.058 -0.172,0.09 -0.071,0.039 -0.129,0.097 -0.211,0.14 -35.93,21.117 -60,59.91 -60,104.629 0,4.641 0.32,9.199 0.82,13.711 0.11,0.938 0.301,1.848 0.43,2.777 0.5,3.743 1.152,7.43 1.992,11.051 0.129,0.551 0.289,1.09 0.418,1.641 4.91,19.949 12,34.359 25.402,49.039 -0.953,-1.109 0.899,1.262 0.188,-0.008 5.351,6.238 11.25,12.02 17.723,17.098 12.546,9.84 26.929,17.32 42.628,21.761 1.059,0.301 2.122,0.598 3.192,0.86 2.129,0.539 4.277,1 6.449,1.43 2.109,0.402 4.25,0.73 6.398,1.019 1.583,0.223 3.141,0.473 4.743,0.633 3.359,0.316 6.769,0.488 10.199,0.539 0.551,0.008 1.09,0.078 1.641,0.078 0.019,0 0.027,0.012 0.046,0 13.153,-0.617 25.614,11.133 25.614,24.242 0,13.149 -12.5,24.93 -25.66,24.297 -5.442,0 -10.813,-0.308 -16.122,-0.808 -0.261,-0.032 -0.519,-0.071 -0.781,-0.098 -1.621,-0.16 -3.211,-0.422 -4.82,-0.621 -3.418,-0.442 -6.828,-0.922 -10.188,-1.563 -2.172,-0.41 -4.312,-0.91 -6.461,-1.398 -2.968,-0.692 -5.91,-1.43 -8.82,-2.27 -2.199,-0.629 -4.391,-1.289 -6.558,-2.011 -2.84,-0.938 -5.633,-1.989 -8.403,-3.071 -2.051,-0.808 -4.109,-1.578 -6.121,-2.449 -3.148,-1.379 -6.207,-2.898 -9.258,-4.461 -1.492,-0.758 -3.031,-1.43 -4.492,-2.238 -4.437,-2.43 -8.758,-5.039 -12.957,-7.84 -0.973,-0.66 -1.891,-1.391 -2.852,-2.059 -3.441,-2.41 -6.839,-4.882 -10.089,-7.519 -0.532,-0.434 -1.051,-0.871 -1.578,-1.313 -3.833,-3.187 -7.543,-6.519 -11.083,-10.031 -0.25,-0.25 -0.48,-0.508 -0.73,-0.75 -3.488,-3.508 -6.828,-7.168 -10.008,-10.957 -0.242,-0.293 -0.492,-0.562 -0.73,-0.851 -3.102,-3.739 -6,-7.649 -8.77,-11.661 -0.5,-0.73 -1.012,-1.449 -1.512,-2.187 -2.621,-3.91 -5.078,-7.934 -7.371,-12.051 -0.457,-0.82 -0.886,-1.652 -1.328,-2.48 -2.269,-4.25 -4.422,-8.59 -6.332,-13.051 -0.179,-0.43 -0.34,-0.879 -0.519,-1.309 -1.731,-4.133 -3.258,-8.351 -4.66,-12.621 -0.809,-2.488 -1.489,-5.039 -2.188,-7.582 -0.562,-2.027 -1.102,-4.078 -1.59,-6.148 -0.75,-3.192 -1.422,-6.41 -1.98,-9.668 -0.223,-1.25 -0.391,-2.524 -0.582,-3.793 -1.231,-8.258 -1.938,-16.699 -1.938,-25.309 0,-3.301 0.129,-6.57 0.328,-9.82 0.032,-0.481 0.039,-0.961 0.071,-1.43 0.742,-10.648 2.48,-21.019 5.031,-30.988 0.019,-0.07 0,-0.141 0.019,-0.211 19.071,-73.223 85.961,-127.68 165.372,-127.68 4.007,0 7.937,0.328 11.878,0.598 1.258,0.109 2.508,0.191 3.782,0.32 10.847,0.981 21.398,2.973 31.566,5.86 0.043,0.011 0.094,0.019 0.141,0.031 4.16,1.191 8.203,2.621 12.222,4.109 1.27,0.473 2.559,0.891 3.809,1.391 3.051,1.211 6.019,2.59 8.98,3.969 2.168,1.019 4.36,2.011 6.481,3.121 2.141,1.101 4.219,2.308 6.308,3.5 2.852,1.64 5.68,3.308 8.422,5.101 1.387,0.91 2.758,1.867 4.118,2.821 3.3,2.296 6.543,4.668 9.66,7.187 0.832,0.672 1.652,1.352 2.472,2.031 3.52,2.95 6.938,6.02 10.207,9.239 0.43,0.429 0.871,0.851 1.293,1.281 3.528,3.551 6.918,7.23 10.118,11.07 0.203,0.238 0.402,0.469 0.601,0.711 3.328,4.027 6.481,8.207 9.442,12.539 0.089,0.141 0.187,0.27 0.289,0.41 2.961,4.371 5.718,8.891 8.269,13.532 0.102,0.168 0.199,0.339 0.301,0.507 2.48,4.539 4.73,9.219 6.789,14 0.141,0.321 0.301,0.629 0.441,0.961 1.93,4.551 3.618,9.231 5.161,13.969 0.187,0.59 0.417,1.172 0.609,1.762 1.379,4.437 2.5,8.98 3.519,13.558 0.2,0.942 0.489,1.84 0.668,2.782 0.891,4.328 1.5,8.757 2.043,13.211 0.149,1.187 0.399,2.347 0.52,3.546 0.527,5.301 0.789,10.692 0.82,16.122 0,0.3 0.039,0.589 0.039,0.89 0,0.078 -0.011,0.16 -0.011,0.238"
           style="fill:#f6a800;fill-opacity:1;fill-rule:nonzero;stroke:none"
           id="path4357" />
        <path
           inkscape:connector-curvature="0"
           d="m 655.586,762.949 c -45.223,19.871 -95.18,30.75 -147.691,30.75 -59.848,0 -116.309,-14.418 -166.219,-39.808 11.301,5.421 26.597,0.539 32.429,-10.602 5.598,-10.898 1.11,-25.547 -9.3,-31.906 -0.442,-0.281 -0.84,-0.613 -1.309,-0.852 20.508,10.469 42.25,18.871 65.027,24.731 25.364,6.461 51.954,9.898 79.372,9.898 3.929,0 7.82,-0.168 11.73,-0.308 2.16,-0.082 4.34,-0.11 6.488,-0.231 4.223,-0.238 8.391,-0.59 12.563,-0.988 2.308,-0.223 4.609,-0.481 6.91,-0.75 13.75,-1.621 27.219,-4.121 40.367,-7.434 2.16,-0.547 4.32,-1.078 6.461,-1.668 3.902,-1.07 7.77,-2.199 11.609,-3.41 2.192,-0.691 4.34,-1.449 6.512,-2.18 6.43,-2.191 12.762,-4.57 19,-7.152 2.121,-0.879 4.281,-1.687 6.379,-2.609 11.699,-5.149 27.07,0.793 32.27,12.461 5.14,11.66 -0.848,26.949 -12.598,32.058"
           style="fill:#b8d698;fill-opacity:1;fill-rule:nonzero;stroke:none"
           id="path4359" />
        <path
           inkscape:connector-curvature="0"
           d="m 320.352,174.551 c -0.508,0.371 -0.981,0.781 -1.489,1.148 -2.789,2.071 -5.511,4.231 -8.23,6.391 -3.352,2.652 -6.641,5.383 -9.879,8.16 -2.313,1.98 -4.641,3.949 -6.883,6 -2.168,1.961 -4.258,4.012 -6.367,6.031 -1.883,1.809 -3.77,3.621 -5.602,5.481 -2.14,2.16 -4.23,4.359 -6.3,6.57 -1.707,1.828 -3.387,3.668 -5.059,5.539 -2.051,2.309 -4.09,4.621 -6.078,6.988 -1.563,1.852 -3.07,3.743 -4.582,5.633 -1.981,2.457 -3.981,4.91 -5.879,7.438 -1.34,1.769 -2.602,3.59 -3.902,5.39 -3.469,4.813 -6.809,9.719 -10.02,14.719 -1.328,2.094 -2.711,4.152 -3.988,6.281 -1.539,2.52 -2.981,5.102 -4.442,7.672 -1.34,2.348 -2.687,4.699 -3.968,7.09 -0.122,0.238 -0.262,0.469 -0.391,0.699 8.219,-15 -5.231,-36.672 -22.43,-35.929 -7.992,0.238 -15.492,4.82 -19.769,11.488 25.898,-48.117 62.23,-89.86 106.14,-121.988 3.731,-2.832 8.309,-4.532 13,-4.86 10.571,-0.91 21.368,5.938 24.989,15.899 3.609,9.921 -0.168,22.101 -8.871,28.16"
           style="fill:#b8d698;fill-opacity:1;fill-rule:nonzero;stroke:none"
           id="path4361" />
        <path
           inkscape:connector-curvature="0"
           d="m 537.906,467.824 c -8.808,6.77 -19.777,10.879 -31.66,10.879 l 0,-19.187 c 7.473,0 14.25,-2.571 19.703,-6.782 l 11.957,15.09"
           style="fill:#ffffff;fill-opacity:1;fill-rule:nonzero;stroke:none"
           id="path4363" />
        <path
           inkscape:connector-curvature="0"
           d="m 581.316,459.57 c -3.972,9.508 -9.851,18.278 -17.191,25.59 -7.34,7.309 -16.172,13.207 -25.77,17.168 -9.609,3.949 -20.011,6 -30.41,6 -5.968,0 -11.949,-0.758 -17.8,-2.098 -4.27,-0.98 -8.489,-2.23 -12.551,-3.902 -9.61,-3.961 -18.43,-9.859 -25.77,-17.168 -4.078,-4.051 -7.648,-8.59 -10.738,-13.422 -2.492,-3.879 -4.691,-7.929 -6.449,-12.168 -3.953,-9.57 -6.051,-19.929 -6.051,-30.242 0,-10.367 2.098,-20.668 6.051,-30.238 3.957,-9.57 9.84,-18.301 17.187,-25.66 1.172,-1.172 2.442,-2.231 3.692,-3.321 6.55,-5.742 14,-10.449 22.078,-13.769 9.609,-3.981 20.011,-6.012 30.351,-6.012 1.989,0 3.969,0.141 5.95,0.289 8.39,0.633 16.691,2.5 24.46,5.723 9.598,3.949 18.43,9.777 25.77,17.09 7.34,7.359 13.219,16.09 17.191,25.66 3.95,9.57 6.047,19.871 6.047,30.238 0,10.313 -2.097,20.672 -6.047,30.242 m -75.07,-0.05 0,19.187 c 11.891,0 22.848,-4.117 31.66,-10.879 L 525.945,452.73 c -5.441,4.219 -12.23,6.79 -19.699,6.79 m 30.527,-21.582 c -1.468,4.101 -6.238,10.582 -6.046,10.351 l 14.578,12.559 c 4.261,-4.828 7.742,-10.36 9.949,-16.508 l -18.481,-6.402"
           style="fill:#000000;fill-opacity:1;fill-rule:nonzero;stroke:none"
           id="path4365" />
        <path
           inkscape:connector-curvature="0"
           d="m 726.398,451.758 c -0.031,0.226 -0.007,0.476 0,0.719 -0.269,2.558 -0.621,5.097 -0.98,7.628 -0.129,0.93 -0.23,1.872 -0.367,2.801 -0.141,0.879 -0.332,1.739 -0.481,2.621 -0.429,2.559 -0.859,5.129 -1.382,7.668 0.011,0.09 0.05,0.172 0,0.313 -0.118,0.558 -0.227,1.129 -0.348,1.75 -0.32,1.457 -0.781,2.867 -1.129,4.316 -0.731,3.102 -1.531,6.16 -2.402,9.203 -0.532,1.899 -0.93,3.86 -1.5,5.731 -0.282,0.797 -0.45,1.637 -0.731,2.5 -1.918,5.937 -4.348,11.707 -6.777,17.437 -0.453,1.071 -0.953,2.141 -1.473,3.231 -0.07,0.191 -0.187,0.41 -0.289,0.609 -2.988,6.653 -6.309,13.121 -9.93,19.403 -0.121,0.218 -0.242,0.429 -0.371,0.636 -3.34,5.781 -6.949,11.371 -10.8,16.793 -0.43,0.598 -0.86,1.207 -1.297,1.821 -1.692,2.347 -3.453,4.679 -5.274,6.968 -0.269,0.34 -0.527,0.68 -0.797,1.008 -2.172,2.723 -4.402,5.383 -6.691,7.992 -0.031,0.078 0.059,0.27 0,0.328 -3.199,3.723 -6.488,7.25 -9.988,10.704 -0.68,0.679 -1.481,1.128 -2.161,1.808 -1.582,1.461 -3.05,3.121 -4.632,4.578 -0.68,0.571 -1.239,1.192 -1.809,1.813 -14.891,13.301 -31.699,24.48 -49.879,33.328 -1.222,0.601 -2.441,1.199 -3.68,1.769 -1.871,0.883 -3.75,1.723 -5.64,2.543 -3.313,1.43 -6.641,2.821 -10.031,4.078 -0.18,0.071 -0.348,0.141 -0.532,0.211 -5.386,2.02 -10.937,3.7 -16.507,5.301 -2.379,0.668 -4.77,1.321 -7.192,1.91 -5.578,1.387 -11.187,2.719 -16.93,3.68 -0.687,0.117 -1.378,0.258 -2.078,0.367 -1.461,0.242 -2.941,0.41 -4.41,0.614 -1.621,0.226 -3.242,0.507 -4.859,0.679 -0.863,0.117 -1.703,0.289 -2.492,0.399 -1.192,0.109 -2.43,0.23 -3.621,0.339 -1.727,0.141 -3.528,0.11 -5.27,0.211 -3.07,0.192 -6.16,0.289 -9.258,0.36 -1.5,0.019 -2.941,0.172 -4.449,0.172 -0.801,-0.063 -1.652,-0.063 -2.492,0 -17.531,-0.211 -34.508,-2.571 -50.801,-6.633 -0.148,-0.039 -0.309,-0.078 -0.457,-0.117 -5.57,-1.403 -11.051,-3.012 -16.434,-4.821 -0.089,-0.031 -0.187,-0.062 -0.277,-0.089 -1.09,-0.274 -2.102,-0.774 -3.133,-1.204 -10.5,-5.757 -15.437,-19.847 -10.758,-30.808 4.641,-10.981 18.321,-17.321 29.789,-13.699 -0.39,-0.129 -0.757,-0.301 -1.14,-0.43 0.332,0.129 0.703,0.18 1.031,0.32 0.899,0.301 1.828,0.508 2.738,0.797 1.192,0.383 2.403,0.691 3.602,1.043 1.109,0.328 2.219,0.668 3.34,0.981 0.679,0.179 1.351,0.41 2.039,0.589 1.93,0.489 3.902,0.887 5.851,1.321 1.692,0.379 3.391,0.726 5.102,1.058 0.047,0.008 0.098,0.02 0.156,0.032 0.973,0.187 1.922,0.429 2.903,0.597 2.66,0.461 5.378,0.742 8.089,1.07 1.539,0.192 3.051,0.43 4.602,0.583 0.527,0.046 1.027,0.136 1.559,0.179 4.808,0.41 9.691,0.641 14.621,0.641 31.558,0 60.968,-8.582 86.289,-23.32 0.359,-0.204 0.711,-0.43 1.07,-0.641 4.598,-2.723 9.059,-5.641 13.367,-8.77 1.363,-0.98 2.692,-1.972 4.024,-2.992 3.136,-2.418 6.168,-4.969 9.136,-7.597 1.821,-1.614 3.653,-3.204 5.403,-4.891 2.308,-2.231 4.48,-4.602 6.648,-6.961 1.563,-1.68 3.262,-3.219 4.75,-4.969 0.43,-0.5 0.801,-1.062 1.231,-1.582 0.171,-0.199 0.308,-0.418 0.48,-0.621 3.141,-3.809 6.102,-7.758 8.891,-11.84 0.609,-0.886 1.168,-1.816 1.758,-2.719 2.242,-3.41 4.382,-6.89 6.382,-10.46 0.77,-1.387 1.489,-2.797 2.231,-4.207 1.648,-3.18 3.219,-6.391 4.668,-9.68 0.781,-1.75 1.519,-3.512 2.242,-5.281 1.227,-3.082 2.359,-6.2 3.43,-9.36 0.66,-1.98 1.328,-3.941 1.918,-5.953 0.929,-3.148 1.711,-6.348 2.461,-9.566 0.48,-2.043 0.988,-4.063 1.398,-6.121 0.68,-3.539 1.172,-7.129 1.633,-10.743 0.238,-1.789 0.558,-3.546 0.726,-5.359 0.532,-5.449 0.84,-10.961 0.84,-16.551 0,-0.297 -0.039,-0.59 -0.047,-0.879 -0.019,-5.437 -0.293,-10.82 -0.82,-16.129 -0.121,-1.199 -0.371,-2.351 -0.512,-3.539 -0.539,-4.461 -1.16,-8.882 -2.039,-13.222 -0.191,-0.938 -0.469,-1.84 -0.679,-2.77 -1,-4.59 -2.153,-9.129 -3.52,-13.57 -0.18,-0.59 -0.422,-1.168 -0.609,-1.758 -1.524,-4.75 -3.231,-9.41 -5.161,-13.973 -0.132,-0.32 -0.292,-0.636 -0.429,-0.957 -2.063,-4.781 -4.332,-9.453 -6.801,-13.992 -0.09,-0.18 -0.199,-0.347 -0.289,-0.519 -2.563,-4.641 -5.32,-9.161 -8.281,-13.532 -0.09,-0.129 -0.192,-0.269 -0.289,-0.41 -2.953,-4.316 -6.114,-8.508 -9.442,-12.539 -0.191,-0.238 -0.39,-0.469 -0.59,-0.699 -3.211,-3.84 -6.589,-7.531 -10.121,-11.078 -0.429,-0.434 -0.859,-0.852 -1.289,-1.281 -3.281,-3.211 -6.699,-6.282 -10.219,-9.243 -0.82,-0.679 -1.632,-1.359 -2.46,-2.027 -3.129,-2.512 -6.372,-4.891 -9.661,-7.191 -1.371,-0.95 -2.73,-1.899 -4.129,-2.821 -2.75,-1.781 -5.562,-3.461 -8.421,-5.09 -2.079,-1.199 -4.161,-2.398 -6.301,-3.507 -2.129,-1.102 -4.309,-2.114 -6.488,-3.121 -2.961,-1.379 -5.922,-2.762 -8.969,-3.969 -1.262,-0.5 -2.551,-0.922 -3.813,-1.391 -4.019,-1.48 -8.07,-2.922 -12.23,-4.101 -0.039,-0.02 -0.09,-0.032 -0.141,-0.039 -5.328,-1.539 -10.789,-2.75 -16.308,-3.75 -2.239,-0.411 -4.551,-0.629 -6.821,-0.942 -4.05,-0.57 -8.078,-1.199 -12.218,-1.48 -3.93,-0.34 -7.852,-0.61 -11.879,-0.61 -12.653,0.352 -24.481,-10.64 -25.051,-23.211 -0.531,-11.859 9.129,-23.168 20.879,-24.976 1.41,-0.031 2.808,-0.113 4.23,-0.113 68.211,0 128.961,30.679 169.199,78.921 0.481,0.571 0.942,1.161 1.411,1.739 3.492,4.261 6.8,8.672 9.949,13.203 0.18,0.258 0.359,0.527 0.543,0.789 1.019,1.488 2.047,2.98 3.039,4.5 2.09,3.199 4.098,6.461 6.027,9.777 1.41,2.434 2.774,4.903 4.094,7.391 0.227,0.441 0.488,0.871 0.719,1.312 1.008,1.918 2.031,3.828 2.968,5.778 1.942,4.019 3.711,8.133 5.403,12.269 0.898,2.211 1.797,4.41 2.629,6.66 1.48,3.993 2.828,8.051 4.078,12.153 0.781,2.57 1.512,5.16 2.203,7.769 1.047,3.949 2,7.93 2.828,11.961 0.59,2.899 1.09,5.84 1.57,8.789 0.079,0.539 0.141,1.09 0.219,1.629 0.313,1.922 0.563,3.86 0.82,5.789 0.59,4.621 1.051,9.281 1.34,13.981 0.141,2.121 0.223,4.242 0.301,6.371 0.078,2.531 0.191,5.051 0.191,7.601 0,7.578 -0.339,15.118 -1.082,22.481"
           style="fill:#d85c41;fill-opacity:1;fill-rule:nonzero;stroke:none"
           id="path4367" />
        <path
           inkscape:connector-curvature="0"
           d="m 447.645,192.496 c 0.226,1.578 0.636,3.109 1.207,4.59 3.972,10.371 15.562,17.879 26.64,16.25 0.731,-0.109 1.473,-0.172 2.211,-0.281 -53.949,7.351 -101.469,34.031 -135.488,72.929 -8.461,9.68 -24.981,10.821 -34.703,2.321 -9.239,-8.117 -10.571,-23.5 -3.278,-33.36 41.039,-47.449 98.539,-80.371 163.84,-89.988 -12.582,1.93 -22.293,15.02 -20.429,27.539"
           style="fill:#bcb5d7;fill-opacity:1;fill-rule:nonzero;stroke:none"
           id="path4369" />
        <path
           inkscape:connector-curvature="0"
           d="m 776.41,433.953 c -0.07,3.223 -0.109,6.461 -0.262,9.582 -0.23,4.36 -0.621,8.899 -1.07,13.188 l 0,1.089 c -0.398,4.02 -1.14,8.09 -1.758,12.122 -0.16,0.57 -0.281,1.191 -0.39,1.761 -0.18,1.34 -0.45,2.59 -0.692,3.899 -0.558,3.23 -1.121,6.461 -1.8,9.621 -0.739,3.57 -1.579,7.187 -2.489,10.719 -0.281,0.949 -0.449,1.91 -0.73,2.82 -0.91,3.34 -1.809,6.691 -2.891,9.961 -0.277,1.09 -0.68,2.16 -1.07,3.238 -1.02,3.109 -2.047,6.172 -3.219,9.289 -1.191,3.332 -2.539,6.621 -3.898,9.961 -0.293,0.68 -0.453,1.422 -0.743,2.16 -0.558,1.289 -1.179,2.539 -1.808,3.903 -1.121,2.668 -2.313,5.199 -3.563,7.808 -0.679,1.481 -1.41,2.891 -2.136,4.309 -0.012,0.031 -0.012,0.062 -0.024,0.082 -4,7.808 -8.316,15.41 -13.008,22.769 -0.089,0.141 -0.171,0.282 -0.261,0.411 -2.598,4.078 -5.41,8 -8.231,11.917 -0.699,0.981 -1.398,1.981 -2.109,2.93 -0.238,0.352 -0.438,0.711 -0.649,1.07 -0.41,0.563 -0.789,1.133 -1.211,1.68 -32.05,42.262 -76.41,74.653 -127.828,92.07 -2.64,0.903 -5.25,1.84 -7.922,2.661 -2.339,0.722 -4.73,1.32 -7.097,1.972 -3.992,1.098 -7.981,2.188 -12.043,3.11 -1.231,0.257 -2.457,0.519 -3.688,0.757 -10.703,2.25 -21.66,3.852 -32.8,4.793 -2.04,0.161 -4.071,0.34 -6.122,0.457 -1.039,0.063 -2.078,0.063 -3.121,0.114 -0.066,0 -0.136,0 -0.207,0 -0.019,0 -0.05,0.008 -0.07,0.008 -4.5,0.23 -8.992,0.492 -13.551,0.492 -78.961,0 -149.832,-33.692 -198.929,-87.442 -0.082,-0.101 -0.172,-0.199 -0.262,-0.3 -2.731,-3 -5.399,-6.059 -8,-9.192 -3.36,-4.097 -6.641,-8.277 -9.77,-12.566 -0.019,-0.031 -0.039,-0.063 -0.058,-0.09 -6.782,-9.313 -12.992,-19.051 -18.582,-29.152 -4.239,-7.36 -4.18,-16.93 0.062,-24.239 4.238,-7.3 12.551,-12.062 21.078,-12.121 8.891,-0.109 17.641,5.051 21.821,12.801 0.25,0.449 0.531,0.867 0.781,1.309 1.988,3.519 4.027,6.992 6.199,10.39 0.578,0.91 1.211,1.789 1.801,2.699 2.121,3.2 4.238,6.379 6.519,9.461 1.039,1.418 2.18,2.77 3.25,4.161 2.551,3.289 5.149,6.531 7.879,9.66 2.723,3.148 5.512,6.238 8.41,9.23 0.782,0.789 1.59,1.539 2.372,2.32 3.109,3.098 6.289,6.118 9.578,9.04 0.59,0.519 1.191,1.019 1.781,1.531 3.699,3.207 7.5,6.289 11.398,9.25 0.243,0.179 0.481,0.359 0.723,0.539 17.098,12.859 36.188,23.148 56.68,30.621 0.597,0.226 1.168,0.5 1.781,0.707 -0.031,-0.008 -0.051,-0.039 -0.094,-0.059 1.063,0.379 2.071,0.852 3.133,1.211 0.051,0.008 0.09,0.028 0.129,0.039 0.051,0.02 0.101,0.032 0.148,0.039 5.383,1.813 10.864,3.422 16.434,4.821 0.148,0.039 0.309,0.082 0.457,0.121 4.211,1.051 8.473,1.98 12.77,2.789 0.542,0.101 1.101,0.172 1.64,0.269 12.61,2.27 25.582,3.512 38.813,3.512 1.519,0 3.007,-0.082 4.519,-0.109 3.11,-0.063 6.199,-0.192 9.258,-0.364 5.473,-0.339 10.883,-0.886 16.242,-1.617 1.469,-0.211 2.949,-0.383 4.41,-0.621 0.7,-0.109 1.391,-0.25 2.078,-0.371 5.743,-0.961 11.352,-2.277 16.93,-3.68 1.492,-0.359 2.949,-0.781 4.422,-1.168 0.918,-0.25 1.848,-0.48 2.77,-0.742 5.57,-1.597 11.121,-3.277 16.507,-5.301 0.184,-0.058 0.352,-0.136 0.532,-0.199 3.39,-1.269 6.718,-2.66 10.031,-4.078 1.89,-0.832 3.769,-1.672 5.64,-2.551 1.231,-0.57 2.458,-1.172 3.68,-1.769 26.188,-12.903 49.43,-30.852 68.469,-52.563 0.012,0 0,-0.007 0,-0.019 2.262,-2.578 4.5,-5.25 6.691,-7.969 0.27,-0.328 0.528,-0.672 0.797,-1.012 1.821,-2.289 3.582,-4.617 5.274,-6.968 0.437,-0.61 0.867,-1.211 1.297,-1.821 3.851,-5.418 7.46,-11.008 10.8,-16.777 0.129,-0.223 0.25,-0.434 0.371,-0.652 3.621,-6.282 6.942,-12.75 9.93,-19.399 4.27,-9.5 7.879,-19.351 10.77,-29.512 0.851,-3.039 1.671,-6.097 2.402,-9.187 0.508,-2.133 1.039,-4.242 1.477,-6.391 0,-0.031 -0.008,-0.07 0,-0.101 0.511,-2.512 0.953,-5.039 1.382,-7.571 0.149,-0.878 0.34,-1.738 0.481,-2.621 0.137,-0.929 0.238,-1.867 0.367,-2.797 0.359,-2.531 0.711,-5.07 0.98,-7.632 -0.007,-0.239 -0.031,-0.489 0,-0.719 0.743,-7.359 1.082,-14.899 1.082,-22.481 0,-2.55 -0.113,-5.07 -0.191,-7.597 -0.07,-2.133 -0.172,-4.25 -0.301,-6.371 -0.289,-4.7 -0.75,-9.36 -1.34,-13.981 -0.25,-1.922 -0.507,-3.84 -0.808,-5.742 0,-0.02 0,-0.027 -0.012,-0.047 -0.078,-0.543 -0.14,-1.09 -0.219,-1.633 -0.48,-2.949 -0.98,-5.886 -1.57,-8.789 -0.828,-4.027 -1.789,-8.008 -2.828,-11.961 -0.691,-2.609 -1.422,-5.199 -2.203,-7.757 -1.25,-4.11 -2.598,-8.172 -4.078,-12.161 -0.832,-2.242 -1.731,-4.449 -2.629,-6.66 -1.692,-4.14 -3.461,-8.25 -5.403,-12.262 -0.937,-1.957 -1.96,-3.867 -2.968,-5.789 -0.231,-0.437 -0.492,-0.871 -0.719,-1.308 -1.32,-2.492 -2.684,-4.961 -4.094,-7.391 -1.929,-3.32 -3.937,-6.582 -6.027,-9.781 -1,-1.52 -2.012,-3.008 -3.039,-4.5 -0.133,-0.18 -0.25,-0.367 -0.371,-0.551 -0.063,-0.078 -0.11,-0.156 -0.172,-0.238 -3.149,-4.531 -6.457,-8.93 -9.949,-13.199 -0.469,-0.582 -0.93,-1.16 -1.411,-1.743 -40.238,-48.238 -100.988,-78.917 -169.199,-78.917 -1.422,0 -2.82,0.089 -4.23,0.109 -7.27,0.141 -14.43,0.672 -21.508,1.488 -1.512,0.172 -3.012,0.363 -4.512,0.563 -0.73,0.109 -1.469,0.168 -2.211,0.277 -11.07,1.641 -22.66,-5.879 -26.64,-16.25 -0.559,-1.477 -0.969,-3.008 -1.207,-4.59 -1.864,-12.519 7.847,-25.609 20.429,-27.527 0.457,-0.07 0.918,-0.11 1.368,-0.18 5.14,-0.75 10.281,-1.281 15.429,-1.723 1.922,-0.16 3.844,-0.308 5.762,-0.429 5.719,-0.348 11.461,-0.61 17.32,-0.61 5.719,0 11.371,0.243 16.989,0.59 1.792,0.11 3.57,0.262 5.351,0.41 3.949,0.321 7.859,0.743 11.75,1.231 1.899,0.238 3.809,0.441 5.699,0.719 4.922,0.73 9.789,1.589 14.61,2.57 2.742,0.562 5.441,1.23 8.14,1.871 2.282,0.539 4.563,1.102 6.821,1.699 3.171,0.84 6.32,1.711 9.429,2.672 1.242,0.367 2.45,0.789 3.68,1.18 6.902,2.219 13.641,4.777 20.281,7.527 1.781,0.742 3.578,1.434 5.34,2.211 2.738,1.192 5.469,2.391 8.149,3.672 0.07,0.027 0.14,0.07 0.203,0.098 6.16,2.961 12.129,6.222 18.007,9.632 16.942,9.758 32.692,21.309 47.032,34.368 1.199,1.101 2.359,2.242 3.539,3.359 2.051,1.934 4.082,3.883 6.07,5.871 1.75,1.77 3.469,3.582 5.172,5.402 1.289,1.368 2.566,2.739 3.828,4.129 2.012,2.239 3.981,4.5 5.922,6.801 0.789,0.949 1.578,1.899 2.359,2.86 2.219,2.71 4.399,5.441 6.508,8.238 0.281,0.359 0.539,0.73 0.813,1.101 33.207,44.469 52.898,99.508 52.898,159.039 0,1.563 -0.101,3.11 -0.129,4.68 M 513,210.734 c -1.691,-0.019 -3.391,-0.058 -5.109,-0.058 1.718,0 3.418,0.039 5.109,0.058"
           style="fill:#7a6fac;fill-opacity:1;fill-rule:nonzero;stroke:none"
           id="path4371" />
        <path
           inkscape:connector-curvature="0"
           d="m 794.184,566.207 c -33.719,69.699 -92.559,125.02 -164.649,154.828 -6.242,2.582 -12.57,4.973 -19,7.153 -2.16,0.738 -4.32,1.488 -6.512,2.179 -3.839,1.219 -7.711,2.348 -11.609,3.418 -2.141,0.59 -4.301,1.121 -6.461,1.66 -13.148,3.313 -26.617,5.813 -40.367,7.43 -2.301,0.27 -4.602,0.531 -6.91,0.75 -4.16,0.402 -8.34,0.762 -12.563,0.992 -2.148,0.117 -4.328,0.16 -6.488,0.238 -3.902,0.141 -7.801,0.309 -11.73,0.309 -27.422,0 -54.012,-3.437 -79.372,-9.898 -22.769,-5.871 -44.519,-14.258 -65.031,-24.739 -0.066,-0.031 -0.129,-0.089 -0.199,-0.132 -8.398,-4.297 -16.609,-8.969 -24.598,-13.957 -0.23,-0.153 -0.461,-0.301 -0.691,-0.454 -7.41,-4.66 -14.59,-9.648 -21.578,-14.886 -1.512,-1.141 -2.992,-2.34 -4.492,-3.512 -4.911,-3.809 -9.661,-7.809 -14.34,-11.898 -3.649,-3.231 -7.231,-6.543 -10.739,-9.93 -2.222,-2.141 -4.39,-4.332 -6.562,-6.531 -37.641,-38.582 -65.539,-86.622 -79.578,-140.192 -0.121,-0.461 -0.25,-0.91 -0.371,-1.371 -1.032,-4 -1.942,-8.039 -2.809,-12.09 -0.281,-1.297 -0.582,-2.578 -0.84,-3.879 -0.121,-0.621 -0.211,-1.25 -0.34,-1.871 -0.531,-2.738 -1.011,-5.5 -1.472,-8.258 -0.289,-1.75 -0.617,-3.48 -0.879,-5.23 -0.5,-3.391 -0.899,-6.809 -1.301,-10.238 -0.199,-1.762 -0.449,-3.5 -0.617,-5.262 -0.363,-3.578 -0.594,-7.191 -0.832,-10.809 -0.102,-1.632 -0.262,-3.25 -0.34,-4.89 -0.25,-4.981 -0.371,-9.992 -0.379,-15.032 0,-0.257 -0.019,-0.519 -0.019,-0.781 0,-6.578 0.207,-13.109 0.609,-19.59 0.008,-0.207 0.027,-0.418 0.051,-0.629 0.039,-0.589 0.117,-1.179 0.16,-1.769 0.379,-5.449 0.867,-10.871 1.527,-16.238 0.09,-0.801 0.199,-1.59 0.301,-2.391 0.731,-5.652 1.609,-11.262 2.641,-16.812 0.097,-0.528 0.187,-1.071 0.289,-1.598 3.551,-18.609 8.742,-36.641 15.422,-53.93 0.117,-0.32 0.25,-0.633 0.379,-0.941 2.078,-5.36 4.32,-10.641 6.691,-15.852 0.238,-0.539 0.476,-1.078 0.726,-1.609 2.43,-5.277 5,-10.481 7.711,-15.59 0.219,-0.43 0.43,-0.867 0.661,-1.289 1.281,-2.391 2.621,-4.75 3.968,-7.102 1.461,-2.558 2.903,-5.148 4.434,-7.668 1.289,-2.121 2.668,-4.179 4,-6.269 3.207,-5.012 6.547,-9.91 10.019,-14.723 1.297,-1.797 2.559,-3.629 3.899,-5.398 1.898,-2.52 3.898,-4.969 5.871,-7.442 1.52,-1.879 3.027,-3.777 4.578,-5.629 1.992,-2.359 4.039,-4.679 6.09,-6.98 1.66,-1.867 3.352,-3.711 5.051,-5.539 2.082,-2.219 4.172,-4.422 6.301,-6.57 1.839,-1.86 3.73,-3.668 5.609,-5.481 2.109,-2.027 4.199,-4.07 6.359,-6.039 2.25,-2.039 4.582,-4.012 6.879,-5.988 3.242,-2.793 6.543,-5.512 9.891,-8.172 2.722,-2.148 5.441,-4.32 8.23,-6.379 52.86,-39.133 118.301,-62.32 189.09,-62.32 46.93,0 91.563,10.258 131.723,28.48 11.918,5.41 23.5,11.449 34.558,18.231 1.192,0.718 2.25,1.59 3.27,2.5 8.422,7.59 10.93,21.386 4.871,31.09 -5.859,9.468 -18.84,13.417 -29.27,9.796 -1.082,-0.367 -2.132,-0.828 -3.152,-1.379 -0.34,-0.179 -0.68,-0.257 -1.019,-0.46 -0.11,-0.079 -0.25,-0.118 -0.36,-0.2 -0.238,-0.14 -0.48,-0.257 -0.719,-0.39 -1.511,-0.848 -3.062,-1.649 -4.601,-2.5 -6.149,-3.578 -12.418,-6.981 -18.859,-10.078 -0.071,-0.032 -0.129,-0.071 -0.2,-0.102 -2.679,-1.289 -5.422,-2.48 -8.16,-3.668 -0.312,-0.141 -0.609,-0.293 -0.922,-0.422 -8.039,-3.5 -16.277,-6.609 -24.699,-9.32 -1.219,-0.391 -2.441,-0.809 -3.672,-1.18 -3.117,-0.961 -6.269,-1.828 -9.43,-2.668 -2.257,-0.601 -4.539,-1.16 -6.828,-1.703 -2.699,-0.637 -5.398,-1.309 -8.129,-1.867 -4.832,-0.981 -9.703,-1.852 -14.613,-2.57 -1.887,-0.282 -3.808,-0.481 -5.707,-0.719 -3.89,-0.492 -7.801,-0.91 -11.742,-1.231 -1.777,-0.152 -3.559,-0.3 -5.348,-0.41 -5.621,-0.351 -11.281,-0.59 -16.992,-0.59 -5.867,0 -11.598,0.25 -17.32,0.61 -1.93,0.121 -3.848,0.269 -5.758,0.429 -5.16,0.442 -10.301,0.969 -15.43,1.719 -0.461,0.07 -0.922,0.11 -1.371,0.172 -65.301,9.629 -122.801,42.539 -163.851,89.988 -40.45,46.77 -64.93,107.653 -64.93,174.379 0,59.071 19.18,113.571 51.633,157.762 0.027,0.031 0.047,0.059 0.066,0.09 3.141,4.281 6.383,8.488 9.774,12.57 2.578,3.141 5.289,6.172 8,9.192 0.089,0.097 0.168,0.199 0.257,0.296 49.102,53.75 119.969,87.442 198.93,87.442 4.551,0 9.039,-0.262 13.539,-0.488 0.102,0 0.192,-0.012 0.281,-0.012 1.039,-0.051 2.09,-0.051 3.122,-0.11 2.05,-0.121 4.089,-0.3 6.121,-0.461 11.148,-0.941 22.097,-2.539 32.808,-4.789 1.231,-0.25 2.449,-0.5 3.68,-0.761 4.058,-0.918 8.051,-2.008 12.039,-3.11 2.371,-0.648 4.762,-1.257 7.109,-1.968 2.672,-0.821 5.282,-1.762 7.91,-2.661 5.274,-1.781 10.403,-3.82 15.512,-5.91 2.559,-1.058 5.102,-2.148 7.621,-3.281 2.071,-0.93 4.11,-1.918 6.149,-2.891 23.058,-11.097 44.332,-25.308 63.172,-42.129 0.398,-0.359 0.859,-0.621 1.238,-0.937 0.34,-0.313 0.68,-0.621 1.019,-0.934 0.68,-0.679 1.332,-1.386 2.02,-2.039 0.121,-0.121 0.242,-0.218 0.352,-0.34 2.039,-1.929 4.128,-3.738 6.109,-5.718 1.18,-1.192 2.422,-2.321 3.551,-3.563 1.961,-2.019 3.918,-4.027 5.808,-6.117 1.09,-1.281 2.071,-2.59 3.18,-3.852 1.582,-1.808 3.109,-3.519 4.633,-5.339 0.668,-0.821 1.359,-1.602 2.047,-2.391 1.8,-2.219 3.703,-4.348 5.429,-6.629 0.41,-0.551 0.793,-1.129 1.211,-1.68 0.199,-0.359 0.403,-0.718 0.653,-1.07 0.699,-0.949 1.398,-1.949 2.109,-2.93 2.809,-3.921 5.617,-7.839 8.23,-11.921 0.09,-0.129 0.168,-0.27 0.25,-0.411 4.688,-7.359 9.02,-14.957 13.008,-22.769 0.742,-1.449 1.571,-2.86 2.282,-4.328 5.55,-11.5 21.089,-16.871 32.621,-11.379 11.527,5.547 16.957,21.008 11.418,32.449"
           style="fill:#8ebae5;fill-opacity:1;fill-rule:nonzero;stroke:none"
           id="path4373" />
        <path
           inkscape:connector-curvature="0"
           d="m 798.691,409.395 -2.589,0 c -10.668,-0.711 -20.2,-9.282 -22.297,-19.641 1.937,12.941 2.968,26.172 2.968,39.641 0.051,1.539 -0.101,3.058 -0.359,4.558 0.027,-1.566 0.117,-3.117 0.117,-4.68 0,-22.019 -2.719,-43.418 -7.797,-63.898 -0.14,-0.57 -0.281,-1.129 -0.422,-1.699 -5.109,-20.039 -12.507,-39.192 -21.89,-57.153 0,-0.007 -0.008,-0.007 -0.008,-0.007 -0.449,-0.86 -0.922,-1.711 -1.383,-2.563 l 0.012,0 c -0.52,-0.937 -1.012,-1.898 -1.531,-2.84 0,-0.008 -0.008,-0.008 -0.008,-0.008 0.519,0.942 1.019,1.891 1.527,2.848 -2.629,-4.906 -5.418,-9.707 -8.34,-14.418 0.563,0.899 1.121,1.789 1.672,2.699 -0.558,-0.898 -1.109,-1.808 -1.672,-2.711 l 0,0.012 c -0.418,-0.672 -0.828,-1.351 -1.25,-2.019 -0.359,-0.571 -0.726,-1.141 -1.089,-1.719 -3.25,-5.063 -6.629,-10.024 -10.2,-14.832 -0.328,-0.461 -0.648,-0.93 -0.98,-1.379 -0.039,-0.051 -0.078,-0.102 -0.117,-0.152 -2.614,-3.469 -5.332,-6.848 -8.102,-10.188 -0.328,-0.402 -0.66,-0.812 -1,-1.211 -0.57,-0.68 -1.172,-1.332 -1.75,-2.012 -1.871,-2.187 -3.781,-4.339 -5.73,-6.468 -0.75,-0.821 -1.5,-1.641 -2.258,-2.45 -0.934,-0.992 -1.871,-1.949 -2.813,-2.929 -1.218,-1.262 -2.437,-2.512 -3.679,-3.75 -1.571,-1.539 -3.149,-3.082 -4.75,-4.59 -0.821,-0.781 -1.641,-1.551 -2.45,-2.332 -0.589,-0.551 -1.191,-1.09 -1.789,-1.629 -10.582,-9.57 -21.902,-18.34 -33.91,-26.16 -0.07,-0.039 -0.14,-0.078 -0.211,-0.121 -4.031,-2.617 -8.129,-5.141 -12.308,-7.547 0.316,0.18 0.629,0.34 0.949,0.519 1.539,0.84 3.09,1.637 4.598,2.489 0.242,0.129 0.492,0.261 0.722,0.39 0.11,0.078 0.25,0.121 0.36,0.2 0.339,0.199 0.679,0.281 1.019,0.46 1.02,0.551 2.07,1.008 3.149,1.379 10.429,3.621 23.41,-0.328 29.269,-9.8 6.063,-9.7 3.563,-23.5 -4.867,-31.09 -0.332,-0.328 -0.582,-0.688 -0.949,-1.02 76.468,47.801 130.91,127.031 145.207,219.512 2.261,13.519 -9.278,27.687 -23.071,28.309 M 725.152,272.387 c 0,-0.012 -0.007,-0.024 -0.007,-0.024 1.769,2.422 3.476,4.891 5.179,7.364 -1.691,-2.461 -3.39,-4.93 -5.172,-7.34 m 22.45,36.328 c -0.137,-0.281 -0.29,-0.539 -0.438,-0.809 0.148,0.27 0.301,0.528 0.438,0.809 z m 6.761,14.25 c -1.07,-2.43 -2.191,-4.82 -3.332,-7.211 1.133,2.391 2.274,4.793 3.332,7.223 0,-0.012 0,-0.012 0,-0.012"
           style="fill:#c7ddf2;fill-opacity:1;fill-rule:nonzero;stroke:none"
           id="path4375" />
        <path
           inkscape:connector-curvature="0"
           d="m 453.285,590.617 c -0.328,-0.14 -0.687,-0.191 -1.027,-0.32 0.387,0.129 0.758,0.301 1.148,0.43 -11.48,-3.622 -25.148,2.718 -29.801,13.699 -4.687,10.992 0.29,25.14 10.852,30.871 -0.641,-0.231 -1.25,-0.52 -1.891,-0.75 -20.429,-7.461 -39.468,-17.789 -56.558,-30.578 -0.25,-0.184 -0.481,-0.364 -0.723,-0.543 -3.91,-2.949 -7.699,-6.047 -11.398,-9.25 -0.59,-0.52 -1.199,-1.02 -1.789,-1.539 -3.293,-2.899 -6.461,-5.942 -9.571,-9.032 -0.781,-0.789 -1.601,-1.527 -2.371,-2.32 -2.91,-2.988 -5.679,-6.09 -8.422,-9.226 -2.718,-3.141 -5.328,-6.371 -7.867,-9.661 -1.09,-1.39 -2.211,-2.742 -3.262,-4.16 -2.269,-3.082 -4.41,-6.261 -6.507,-9.472 -0.602,-0.899 -1.223,-1.778 -1.813,-2.688 -2.16,-3.402 -4.219,-6.871 -6.199,-10.402 -17.781,-31.508 -28.07,-67.731 -28.07,-106.348 0,-18.691 2.66,-36.691 7.07,-54.031 2.309,-10.078 11.629,-18.059 21.98,-18.859 15.469,-1.18 29.34,15.519 25.461,30.441 -0.019,0.066 -0.011,0.137 -0.031,0.207 -2.539,9.98 -4.289,20.34 -5.019,30.992 -0.032,0.469 -0.051,0.949 -0.071,1.43 -0.199,3.25 -0.332,6.519 -0.332,9.82 0,8.61 0.711,17.051 1.942,25.309 0.05,0.371 0.109,0.73 0.172,1.09 0.136,0.902 0.25,1.808 0.41,2.711 0.558,3.257 1.226,6.468 1.968,9.66 0.489,2.07 1.039,4.121 1.602,6.16 0.687,2.539 1.379,5.078 2.187,7.57 1.379,4.207 2.891,8.367 4.59,12.438 0.223,0.57 0.45,1.132 0.68,1.691 1.902,4.391 4,8.672 6.242,12.859 -0.633,-1.187 -1.301,-2.371 -1.91,-3.57 0.82,1.633 1.66,3.231 2.527,4.84 0.121,0.211 0.25,0.422 0.371,0.641 0.231,0.441 0.493,0.859 0.731,1.3 -0.129,-0.242 -0.262,-0.5 -0.391,-0.742 1.602,2.891 3.403,5.672 5.172,8.453 1.129,1.797 2.219,3.617 3.418,5.367 0.102,0.141 0.192,0.293 0.289,0.43 2.672,3.863 5.492,7.621 8.461,11.25 0.133,0.16 0.25,0.32 0.379,0.481 0.211,0.261 0.441,0.511 0.66,0.769 3.184,3.801 6.524,7.453 10.012,10.961 0.25,0.242 0.48,0.5 0.73,0.75 3.532,3.512 7.25,6.84 11.079,10.031 0.531,0.442 1.05,0.879 1.582,1.309 3.25,2.652 6.64,5.109 10.089,7.519 0.961,0.672 1.879,1.403 2.848,2.063 4.191,2.789 8.512,5.418 12.961,7.848 1.461,0.8 3,1.48 4.492,2.23 3.039,1.563 6.11,3.082 9.25,4.461 2.02,0.879 4.078,1.641 6.129,2.449 2.77,1.082 5.559,2.129 8.399,3.071 0.64,0.211 1.242,0.48 1.882,0.691 -0.902,-0.289 -1.839,-0.5 -2.742,-0.801"
           style="fill:#e69679;fill-opacity:1;fill-rule:nonzero;stroke:none"
           id="path4377" />
        <path
           inkscape:connector-curvature="0"
           d="m 374.102,743.289 c -5.821,11.141 -21.133,16.027 -32.422,10.609 -1.289,-0.66 -2.59,-1.3 -3.86,-1.968 -2.711,-1.41 -5.379,-2.864 -8.039,-4.332 -2.75,-1.532 -5.472,-3.09 -8.179,-4.68 -1.864,-1.09 -3.711,-2.191 -5.551,-3.32 -3.879,-2.379 -7.723,-4.821 -11.512,-7.34 -0.609,-0.41 -1.23,-0.809 -1.84,-1.219 -24.051,-16.141 -46.097,-34.961 -65.609,-56.281 -2.059,-2.262 -3.942,-4.692 -5.942,-7 -0.097,-0.102 -0.179,-0.211 -0.277,-0.32 -5.082,-5.872 -10.012,-11.872 -14.711,-18.059 -0.371,-0.481 -0.711,-0.981 -1.07,-1.473 -4.399,-5.84 -8.68,-11.777 -12.731,-17.886 -1.007,-1.524 -1.918,-3.114 -2.91,-4.653 -3.34,-5.23 -6.687,-10.461 -9.777,-15.859 -4.082,-7.121 -7.942,-14.371 -11.543,-21.781 -0.207,-0.43 -0.41,-0.86 -0.617,-1.289 -2.211,-4.59 -4.321,-9.25 -6.34,-13.942 -0.442,-1.027 -0.871,-2.047 -1.301,-3.078 -1.742,-4.141 -3.391,-8.328 -4.98,-12.551 -0.551,-1.48 -1.11,-2.961 -1.641,-4.449 -1.379,-3.809 -2.672,-7.648 -3.922,-11.52 -0.598,-1.851 -1.207,-3.71 -1.777,-5.582 -1.09,-3.578 -2.102,-7.187 -3.09,-10.808 -0.57,-2.129 -1.172,-4.25 -1.699,-6.391 -0.871,-3.449 -1.653,-6.929 -2.422,-10.418 -0.512,-2.312 -1.051,-4.621 -1.512,-6.953 -0.687,-3.398 -1.269,-6.848 -1.848,-10.289 -0.421,-2.418 -0.871,-4.828 -1.23,-7.269 -0.52,-3.481 -0.93,-7.008 -1.352,-10.532 -0.277,-2.41 -0.617,-4.797 -0.859,-7.218 -0.379,-3.84 -0.629,-7.719 -0.891,-11.59 -0.136,-2.129 -0.347,-4.231 -0.457,-6.371 -0.281,-5.739 -0.421,-11.508 -0.441,-17.321 0,-0.269 -0.02,-0.547 -0.02,-0.828 0,-7.57 0.239,-15.082 0.692,-22.539 0.418,-6.699 1.058,-13.351 1.828,-19.949 0.078,-0.672 0.109,-1.363 0.191,-2.031 5.45,-44.86 19.008,-87.289 39.34,-125.61 0.348,-0.679 0.899,-1.222 1.309,-1.859 4.289,-6.672 11.781,-11.242 19.781,-11.492 17.199,-0.739 30.641,20.929 22.43,35.929 -1.211,2.27 -2.36,4.571 -3.512,6.86 -1.32,2.621 -2.59,5.261 -3.828,7.91 -0.449,0.949 -0.871,1.922 -1.313,2.871 -0.019,0.051 -0.039,0.109 -0.07,0.16 -2.359,5.199 -4.598,10.481 -6.687,15.828 -0.129,0.321 -0.25,0.653 -0.379,0.973 -1.153,2.988 -2.203,6.027 -3.274,9.059 -0.726,2.089 -1.468,4.191 -2.16,6.3 -0.898,2.77 -1.758,5.559 -2.598,8.36 -0.671,2.281 -1.308,4.582 -1.929,6.879 -0.832,3.031 -1.66,6.062 -2.403,9.14 -0.789,3.301 -1.468,6.653 -2.16,9.992 -0.289,1.399 -0.629,2.778 -0.898,4.188 -0.102,0.531 -0.192,1.062 -0.281,1.601 -1.028,5.551 -1.911,11.161 -2.637,16.809 -0.113,0.801 -0.211,1.59 -0.313,2.391 -0.66,5.371 -1.148,10.789 -1.531,16.242 -0.039,0.59 -0.117,1.168 -0.156,1.769 -0.012,0.207 -0.031,0.418 -0.051,0.629 -0.402,6.481 -0.609,13.008 -0.609,19.59 0,0.262 0.019,0.52 0.019,0.781 0.008,5.039 0.141,10.047 0.379,15.028 0.078,1.64 0.238,3.261 0.352,4.89 0.226,3.61 0.457,7.219 0.816,10.789 0.184,1.782 0.41,3.532 0.633,5.293 0.391,3.418 0.789,6.84 1.301,10.231 0.269,1.75 0.566,3.488 0.867,5.226 0.461,2.762 0.949,5.524 1.48,8.262 0.121,0.621 0.211,1.25 0.332,1.86 0.27,1.3 0.559,2.589 0.84,3.878 0.879,4.063 1.789,8.102 2.809,12.09 0.121,0.473 0.25,0.922 0.371,1.383 14.051,53.57 41.949,101.609 79.59,140.18 -1.621,-1.653 -3.281,-3.27 -4.922,-4.903 1.641,1.633 3.301,3.25 4.922,4.903 2.16,2.211 4.328,4.398 6.558,6.539 3.52,3.379 7.063,6.711 10.743,9.93 4.648,4.101 9.437,8.058 14.339,11.902 1.5,1.156 2.957,2.367 4.489,3.508 6.961,5.261 14.179,10.211 21.582,14.89 0.226,0.149 0.457,0.301 0.687,0.442 7.992,5 16.192,9.668 24.59,13.968 0.082,0.04 0.133,0.09 0.199,0.129 0.473,0.243 0.871,0.582 1.321,0.852 10.41,6.359 14.89,21.008 9.293,31.91"
           style="fill:#57ab27;fill-opacity:1;fill-rule:nonzero;stroke:none"
           id="path4379" />
        <path
           inkscape:connector-curvature="0"
           d="m 536.77,437.938 c -1.469,4.101 -6.239,10.582 -6.047,10.351 l 14.589,12.57 c 4.258,-4.839 7.731,-10.371 9.938,-16.519 l -18.48,-6.402"
           style="fill:#ffffff;fill-opacity:1;fill-rule:nonzero;stroke:none"
           id="path4381" />
      </g>
    </g>
  </g>
  <g
     inkscape:groupmode="layer"
     id="layer7"
     inkscape:label="Border"
     style="display:inline">
    <rect
       style="fill:none;stroke:#c0c0c0;stroke-width:10;stroke-miterlimit:4;stroke-opacity:1;stroke-dasharray:none"
       id="rect4505"
       width="2400"
       height="1400"
       x="0"
       y="0" />
  </g>
</svg>
