<?xml version="1.0" encoding="UTF-8" standalone="no"?>
<svg
   xmlns:dc="http://purl.org/dc/elements/1.1/"
   xmlns:cc="http://creativecommons.org/ns#"
   xmlns:rdf="http://www.w3.org/1999/02/22-rdf-syntax-ns#"
   xmlns:svg="http://www.w3.org/2000/svg"
   xmlns="http://www.w3.org/2000/svg"
   xmlns:sodipodi="http://sodipodi.sourceforge.net/DTD/sodipodi-0.dtd"
   xmlns:inkscape="http://www.inkscape.org/namespaces/inkscape"
   color-rendering="auto"
   color-interpolation="auto"
   text-rendering="auto"
   stroke-miterlimit="10"
   shape-rendering="auto"
   font-weight="normal"
   font-style="normal"
   font-size="12"
   image-rendering="auto"
   id="svg4333"
   version="1.1"
   inkscape:version="0.48.5 r10040"
   width="128"
   height="128"
   sodipodi:docname="preferences.svg"
   style="font-size:12px;font-style:normal;font-weight:normal;fill:#000000;fill-opacity:1;stroke:#000000;stroke-width:1;stroke-linecap:square;stroke-linejoin:miter;stroke-miterlimit:10;stroke-opacity:1;stroke-dasharray:none;stroke-dashoffset:0;font-family:Dialog"
   inkscape:export-filename="/local/ebke/git/vanilla/OpenFlipper/Icons/preferences.png"
   inkscape:export-xdpi="90"
   inkscape:export-ydpi="90">
  <metadata
     id="metadata4344">
    <rdf:RDF>
      <cc:Work
         rdf:about="">
        <dc:format>image/svg+xml</dc:format>
        <dc:type
           rdf:resource="http://purl.org/dc/dcmitype/StillImage" />
        <dc:title></dc:title>
      </cc:Work>
    </rdf:RDF>
  </metadata>
  <sodipodi:namedview
     pagecolor="#ffffff"
     bordercolor="#666666"
     borderopacity="1"
     objecttolerance="10"
     gridtolerance="10"
     guidetolerance="10"
     inkscape:pageopacity="0"
     inkscape:pageshadow="2"
     inkscape:window-width="2560"
     inkscape:window-height="1396"
     id="namedview4342"
     showgrid="false"
     inkscape:zoom="3.5881183"
     inkscape:cx="36.800067"
     inkscape:cy="83.098073"
     inkscape:window-x="-4"
     inkscape:window-y="398"
     inkscape:window-maximized="1"
     inkscape:current-layer="svg4333" />
  <!--Unicode Character 'GEAR' (U+2699)-->
  <defs
     id="genericDefs" />
  <g
     id="g4336"
     transform="matrix(0.59756432,0,0,0.59765077,-13.141789,-75.303997)"
     style="fill:#000000;fill-opacity:1;stroke:none">
    <g
       id="g4338"
       style="fill:#000000;fill-opacity:1;stroke:none">
      <path
         d="m 129.0938,126 q 6.1874,0 12.2343,0.7031 L 144.9844,153 q 9.4218,1.8281 18.4218,6.0469 l 17.7188,-18.5625 q 10.6875,6.3281 19.6875,15.3281 L 189,177.75 q 6.6094,7.0312 11.25,15.4688 l 23.2031,-4.3594 q 5.2031,11.8125 7.4531,24.75 l -20.8124,9.7031 q 0.5624,4.9219 0.5624,9.7031 0,4.7813 -0.5624,9.7032 l 20.8124,9.8437 q -2.25,12.7969 -7.4531,24.6094 L 200.25,272.8125 Q 195.6094,281.25 189,288.4219 l 11.8125,21.7969 q -9,9 -19.6875,15.4687 L 163.4062,307.125 q -9,4.0781 -18.4218,6.0469 l -3.6563,26.1562 q -6.0469,0.8438 -12.2343,0.8438 -6.1876,0 -12.2344,-0.8438 l -3.6563,-26.1562 q -9.4219,-1.9688 -18.4219,-6.0469 L 77.0625,325.6875 Q 66.375,319.2188 57.375,310.2188 l 11.8125,-21.7969 q -6.6094,-7.0313 -11.25,-15.6094 l -23.2031,4.3594 q -5.2032,-11.8125 -7.4532,-24.6094 l 20.8126,-9.8437 q -0.5626,-4.9219 -0.5626,-9.7032 0,-4.7812 0.5626,-9.7031 l -20.8126,-9.7031 q 2.25,-12.9375 7.4532,-24.75 l 23.2031,4.3594 q 4.6406,-8.4376 11.25,-15.6094 L 57.375,155.8125 q 9,-9 19.6875,-15.3281 l 17.7187,18.4218 q 9,-4.0781 18.4219,-5.9062 l 3.6563,-26.2969 Q 122.9062,126 129.0938,126 z m 0,45.1406 q -25.5938,0 -43.7344,18.211 -18.1406,18.2109 -18.1406,43.7343 0,25.5235 18.1406,43.6641 18.1406,18.1406 43.7344,18.1406 25.5937,0 43.7343,-18.1406 18.1407,-18.1406 18.1407,-43.6641 0,-25.5234 -18.1407,-43.7343 -18.1406,-18.211 -43.7343,-18.211 z m 21.7968,61.875 q 0,9 -6.3984,15.3985 -6.3984,6.3984 -15.3984,6.3984 -9,0 -15.3985,-6.3984 -6.3984,-6.3985 -6.3984,-15.3985 0,-9 6.3984,-15.3984 6.3985,-6.3984 15.3985,-6.3984 9,0 15.3984,6.3984 6.3984,6.3984 6.3984,15.3984 z"
         id="path4340"
         inkscape:connector-curvature="0"
         style="fill:#000000;fill-opacity:1;stroke:none" />
    </g>
  </g>
</svg>
